<svg width="235" height="56" viewBox="0 0 235 56" fill="none" xmlns="http://www.w3.org/2000/svg">
<mask id="path-1-inside-1" fill="white">
<path fill-rule="evenodd" clip-rule="evenodd" d="M12 0C5.37258 0 0 5.37258 0 12V29C0 35.6274 5.37258 41 12 41H205L227.5 56L222.167 41H223C229.627 41 235 35.6274 235 29V12C235 5.37258 229.627 0 223 0H12Z"/>
</mask>
<path fill-rule="evenodd" clip-rule="evenodd" d="M12 0C5.37258 0 0 5.37258 0 12V29C0 35.6274 5.37258 41 12 41H205L227.5 56L222.167 41H223C229.627 41 235 35.6274 235 29V12C235 5.37258 229.627 0 223 0H12Z" fill="#EBEEFA"/>
<path d="M205 41L205.555 40.1679L205.303 40H205V41ZM227.5 56L226.945 56.8321L229.451 58.5026L228.442 55.665L227.5 56ZM222.167 41V40H220.75L221.225 41.335L222.167 41ZM1 12C1 5.92487 5.92487 1 12 1V-1C4.8203 -1 -1 4.8203 -1 12H1ZM1 29V12H-1V29H1ZM12 40C5.92487 40 1 35.0751 1 29H-1C-1 36.1797 4.8203 42 12 42V40ZM205 40H12V42H205V40ZM228.055 55.1679L205.555 40.1679L204.445 41.8321L226.945 56.8321L228.055 55.1679ZM221.225 41.335L226.558 56.335L228.442 55.665L223.109 40.665L221.225 41.335ZM223 40H222.167V42H223V40ZM234 29C234 35.0751 229.075 40 223 40V42C230.18 42 236 36.1797 236 29H234ZM234 12V29H236V12H234ZM223 1C229.075 1 234 5.92487 234 12H236C236 4.8203 230.18 -1 223 -1V1ZM12 1H223V-1H12V1Z" fill="#253F9A" mask="url(#path-1-inside-1)"/>
</svg>
