<svg width="177" height="132" viewBox="0 0 177 132" fill="none" xmlns="http://www.w3.org/2000/svg">
<mask id="path-1-inside-1" fill="white">
<path fill-rule="evenodd" clip-rule="evenodd" d="M144.833 69L134 0L160 69H165C171.627 69 177 74.3726 177 81V120C177 126.627 171.627 132 165 132H12C5.37258 132 0 126.627 0 120V81C0 74.3726 5.37258 69 12 69H144.833Z"/>
</mask>
<path fill-rule="evenodd" clip-rule="evenodd" d="M144.833 69L134 0L160 69H165C171.627 69 177 74.3726 177 81V120C177 126.627 171.627 132 165 132H12C5.37258 132 0 126.627 0 120V81C0 74.3726 5.37258 69 12 69H144.833Z" fill="#EBEEFA"/>
<path d="M134 0L134.936 -0.35261L131.501 -9.46685L133.012 0.155105L134 0ZM144.833 69V70H146.003L145.821 68.8449L144.833 69ZM160 69L159.064 69.3526L159.308 70H160V69ZM133.012 0.155105L143.845 69.1551L145.821 68.8449L134.988 -0.155105L133.012 0.155105ZM160.936 68.6474L134.936 -0.35261L133.064 0.35261L159.064 69.3526L160.936 68.6474ZM160 70H165V68H160V70ZM165 70C171.075 70 176 74.9249 176 81H178C178 73.8203 172.18 68 165 68V70ZM176 81V120H178V81H176ZM176 120C176 126.075 171.075 131 165 131V133C172.18 133 178 127.18 178 120H176ZM165 131H12V133H165V131ZM12 131C5.92486 131 1 126.075 1 120H-1C-1 127.18 4.82029 133 12 133V131ZM1 120V81H-1V120H1ZM1 81C1 74.9249 5.92487 70 12 70V68C4.8203 68 -1 73.8203 -1 81H1ZM12 70H144.833V68H12V70Z" fill="#253F9A" mask="url(#path-1-inside-1)"/>
</svg>
