<svg width="311" height="63" viewBox="0 0 311 63" fill="none" xmlns="http://www.w3.org/2000/svg">
<mask id="path-1-inside-1" fill="white">
<path fill-rule="evenodd" clip-rule="evenodd" d="M12 0C5.37258 0 0 5.37258 0 12V51C0 57.6274 5.37258 63 12 63H279C285.627 63 291 57.6274 291 51V32.254L311 44L291 13.0476V12C291 5.37258 285.627 0 279 0H12Z"/>
</mask>
<path fill-rule="evenodd" clip-rule="evenodd" d="M12 0C5.37258 0 0 5.37258 0 12V51C0 57.6274 5.37258 63 12 63H279C285.627 63 291 57.6274 291 51V32.254L311 44L291 13.0476V12C291 5.37258 285.627 0 279 0H12Z" fill="#FFFEE1"/>
<path d="M291 32.254L291.506 31.3918L290 30.507V32.254H291ZM311 44L310.494 44.8623L314.126 46.9958L311.84 43.4573L311 44ZM291 13.0476H290V13.3426L290.16 13.5903L291 13.0476ZM1 12C1 5.92487 5.92487 1 12 1V-1C4.8203 -1 -1 4.8203 -1 12H1ZM1 51V12H-1V51H1ZM12 62C5.92487 62 1 57.0751 1 51H-1C-1 58.1797 4.8203 64 12 64V62ZM279 62H12V64H279V62ZM290 51C290 57.0751 285.075 62 279 62V64C286.18 64 292 58.1797 292 51H290ZM290 32.254V51H292V32.254H290ZM290.494 33.1163L310.494 44.8623L311.506 43.1377L291.506 31.3918L290.494 33.1163ZM311.84 43.4573L291.84 12.5049L290.16 13.5903L310.16 44.5427L311.84 43.4573ZM290 12V13.0476H292V12H290ZM279 1C285.075 1 290 5.92487 290 12H292C292 4.8203 286.18 -1 279 -1V1ZM12 1H279V-1H12V1Z" fill="#253F9A" mask="url(#path-1-inside-1)"/>
<path d="M25.0661 25V23.385H20.4681L24.9521 11.928H17.7131V13.543H21.9311L17.3521 25H25.0661ZM34.4487 24.468V18.084C34.4487 15.614 32.9667 14.55 30.6107 14.55C29.3947 14.55 28.1027 14.892 27.1527 15.329L27.6657 16.697C28.3877 16.336 29.4137 16.051 30.3257 16.051C31.6177 16.051 32.2827 16.583 32.2827 17.78V18.331C29.0527 18.635 26.5637 19.528 26.5637 22.036C26.5637 24.126 28.0457 25.209 30.7437 25.209C32.2827 25.209 33.5937 24.905 34.4487 24.468ZM32.2827 23.613C31.9597 23.784 31.4277 23.898 30.8957 23.898C29.4897 23.898 28.7487 23.214 28.7487 21.96C28.7487 20.383 30.0027 19.699 32.2827 19.452V23.613ZM48.3186 24.506L47.7676 23.1C47.4066 23.366 46.8936 23.537 46.3426 23.537C44.9366 23.537 44.0816 22.017 44.0816 19.832C44.0816 17.628 44.9366 16.127 46.3426 16.127C46.8936 16.127 47.4446 16.298 47.8056 16.564L48.3186 15.253C47.7296 14.797 46.8746 14.55 45.8676 14.55C43.3976 14.55 41.7066 16.64 41.7066 19.87C41.7066 23.1 43.3786 25.209 45.8676 25.209C46.8746 25.209 47.7296 24.962 48.3186 24.506ZM58.2147 25V17.818C58.2147 16.203 57.2837 14.645 54.7187 14.645C53.8257 14.645 53.0467 14.854 52.4387 15.196V10.085H50.1207V25H52.4387V16.507C52.9327 16.241 53.5027 16.089 54.0917 16.089C55.4787 16.089 55.8967 16.887 55.8967 17.875V25H58.2147ZM73.8105 14.759H71.7015L70.1435 21.409C70.0675 21.732 69.9915 22.188 69.9345 22.796H69.8965C69.8205 22.169 69.7445 21.789 69.6495 21.409L67.9205 14.759H66.0015L64.1965 21.409C64.1015 21.751 64.0065 22.283 63.9305 22.796H63.8925C63.8545 22.264 63.7975 21.827 63.7025 21.409L62.2205 14.759H59.8455L62.7335 25H64.8425L66.5905 18.483C66.6855 18.122 66.7615 17.704 66.8185 17.267H66.8565C66.8945 17.666 66.9705 18.122 67.0655 18.483L68.8325 25H70.9225L73.8105 14.759ZM78.0862 11.852C78.0862 11.206 77.4972 10.674 76.7942 10.674C76.0912 10.674 75.5022 11.206 75.5022 11.852C75.5022 12.498 76.0912 13.011 76.7942 13.011C77.4972 13.011 78.0862 12.498 78.0862 11.852ZM77.9532 25V14.759H75.6352V25H77.9532ZM82.9078 25V10.085H80.5898V25H82.9078ZM93.6944 28.249L93.4854 27.28C93.2004 27.394 92.8014 27.489 92.4594 27.489C91.8134 27.489 91.3764 27.09 91.3764 26.577C91.3764 25.665 92.3644 24.924 93.2954 24.468L92.7444 22.986C92.1554 23.309 91.1484 23.575 90.2174 23.575C88.5264 23.575 87.5194 22.511 87.3484 20.725L93.6564 19.794V19.509C93.6564 16.298 92.1554 14.55 89.4954 14.55C86.7214 14.55 85.0874 16.64 85.0874 19.851C85.0874 23.062 86.7974 25.209 89.8944 25.209C90.1984 25.209 90.4834 25.19 90.7874 25.152C90.1604 25.627 89.7234 26.254 89.7234 26.9C89.7234 27.964 90.6734 28.553 92.0604 28.553C92.6684 28.553 93.2954 28.439 93.6944 28.249ZM91.4334 18.882L87.2154 19.547V19.357C87.2154 17.324 87.9564 15.937 89.4194 15.937C90.8064 15.937 91.4144 17.02 91.4334 18.882ZM113.87 14.759H111.761L110.203 21.409C110.127 21.732 110.051 22.188 109.994 22.796H109.956C109.88 22.169 109.804 21.789 109.709 21.409L107.98 14.759H106.061L104.256 21.409C104.161 21.751 104.066 22.283 103.99 22.796H103.952C103.914 22.264 103.857 21.827 103.762 21.409L102.28 14.759H99.905L102.793 25H104.902L106.65 18.483C106.745 18.122 106.821 17.704 106.878 17.267H106.916C106.954 17.666 107.03 18.122 107.125 18.483L108.892 25H110.982L113.87 14.759ZM123.585 19.794V19.49C123.585 16.298 122.084 14.55 119.424 14.55C116.65 14.55 115.016 16.64 115.016 19.851C115.016 23.062 116.726 25.209 119.823 25.209C121.115 25.209 122.388 24.905 123.224 24.468L122.673 22.986C122.084 23.309 121.077 23.575 120.146 23.575C118.455 23.575 117.448 22.511 117.277 20.725L123.585 19.794ZM121.362 18.882L117.144 19.547V19.338C117.144 17.324 117.885 15.937 119.348 15.937C120.735 15.937 121.343 17.02 121.362 18.882ZM128.259 11.852C128.259 11.225 127.689 10.674 126.967 10.674C126.264 10.674 125.675 11.206 125.675 11.852C125.675 12.498 126.264 13.011 126.986 13.011C127.689 13.011 128.259 12.498 128.259 11.852ZM128.126 23.556V14.759H125.808V23.822C125.808 25.836 125.333 26.938 124.022 27.622V29.199C126.777 28.629 128.126 26.691 128.126 23.556ZM138.628 24.468V10.085H136.329V14.835C135.835 14.702 135.379 14.626 134.828 14.626C131.902 14.626 130.287 16.982 130.287 20.041C130.287 23.252 131.997 25.209 135.018 25.209C136.5 25.209 137.811 24.924 138.628 24.468ZM136.329 23.499C136.044 23.651 135.664 23.708 135.113 23.708C133.327 23.708 132.586 22.188 132.586 19.87C132.586 17.704 133.289 15.956 135.246 15.956C135.645 15.956 135.987 16.013 136.329 16.108V23.499ZM147.307 25V23.537H143.355L147.193 14.759H140.714V16.222H144.286L140.391 25H147.307ZM151.748 11.852C151.748 11.206 151.159 10.674 150.456 10.674C149.753 10.674 149.164 11.206 149.164 11.852C149.164 12.498 149.753 13.011 150.456 13.011C151.159 13.011 151.748 12.498 151.748 11.852ZM151.615 25V14.759H149.297V25H151.615ZM162.346 19.794V19.49C162.346 16.298 160.845 14.55 158.185 14.55C155.411 14.55 153.777 16.64 153.777 19.851C153.777 23.062 155.487 25.209 158.584 25.209C159.876 25.209 161.149 24.905 161.985 24.468L161.434 22.986C160.845 23.309 159.838 23.575 158.907 23.575C157.216 23.575 156.209 22.511 156.038 20.725L162.346 19.794ZM160.123 18.882L155.905 19.547V19.338C155.905 17.324 156.646 15.937 158.109 15.937C159.496 15.937 160.104 17.02 160.123 18.882ZM178.173 25V17.97C178.173 15.975 177.033 14.569 174.392 14.569C173.138 14.569 172.074 14.987 171.314 15.671C170.611 14.968 169.718 14.569 168.179 14.569C166.697 14.569 165.519 14.854 164.436 15.31V25H166.697V16.279C167.172 16.089 167.647 16.013 168.293 16.013C169.604 16.013 170.174 16.697 170.174 17.742V25H172.435V16.773C172.834 16.317 173.385 16.013 174.069 16.013C175.361 16.013 175.912 16.773 175.912 17.951V25H178.173ZM188.618 14.759H186.414L184.514 21.523C184.381 21.998 184.286 22.492 184.229 22.967H184.191C184.153 22.454 184.077 21.979 183.963 21.523L182.177 14.759H179.688L183.127 25L181.417 29.085H183.868L188.618 14.759ZM202.92 24.468V10.085H200.621V14.835C200.127 14.702 199.671 14.626 199.12 14.626C196.194 14.626 194.579 16.982 194.579 20.041C194.579 23.252 196.289 25.209 199.31 25.209C200.792 25.209 202.103 24.924 202.92 24.468ZM200.621 23.499C200.336 23.651 199.956 23.708 199.405 23.708C197.619 23.708 196.878 22.188 196.878 19.87C196.878 17.704 197.581 15.956 199.538 15.956C199.937 15.956 200.279 16.013 200.621 16.108V23.499ZM213.67 19.87C213.67 16.792 212.245 14.55 209.338 14.55C206.431 14.55 205.006 16.792 205.006 19.87C205.006 22.967 206.431 25.209 209.338 25.209C212.245 25.209 213.67 22.967 213.67 19.87ZM211.352 19.832C211.352 21.979 210.839 23.67 209.338 23.67C207.837 23.67 207.324 21.979 207.324 19.832C207.324 17.685 207.837 15.994 209.338 15.994C210.839 15.994 211.352 17.704 211.352 19.832ZM227.11 22.017C227.11 18.654 222.892 19.395 222.892 17.381C222.892 16.621 223.405 16.032 224.412 16.032C225.02 16.032 225.685 16.26 226.236 16.602L226.825 15.291C226.046 14.797 225.115 14.55 223.975 14.55C222.056 14.55 220.612 15.785 220.612 17.533C220.612 20.839 224.735 20.041 224.735 22.169C224.735 22.986 224.089 23.613 223.063 23.613C222.398 23.613 221.657 23.423 221.011 23.024L220.365 24.468C221.068 24.905 222.246 25.209 223.329 25.209C225.628 25.209 227.11 23.784 227.11 22.017ZM226.597 11.092C226.388 10.788 225.97 10.655 225.533 10.655C225.096 10.655 224.659 10.75 224.355 10.978L222.987 13.657H224.298L226.597 11.092ZM242.398 14.759H240.289L238.731 21.409C238.655 21.732 238.579 22.188 238.522 22.796H238.484C238.408 22.169 238.332 21.789 238.237 21.409L236.508 14.759H234.589L232.784 21.409C232.689 21.751 232.594 22.283 232.518 22.796H232.48C232.442 22.264 232.385 21.827 232.29 21.409L230.808 14.759H228.433L231.321 25H233.43L235.178 18.483C235.273 18.122 235.349 17.704 235.406 17.267H235.444C235.482 17.666 235.558 18.122 235.653 18.483L237.42 25H239.51L242.398 14.759ZM246.674 11.852C246.674 11.206 246.085 10.674 245.382 10.674C244.679 10.674 244.09 11.206 244.09 11.852C244.09 12.498 244.679 13.011 245.382 13.011C246.085 13.011 246.674 12.498 246.674 11.852ZM246.541 25V14.759H244.223V25H246.541ZM256.493 24.468V18.084C256.493 15.614 255.011 14.55 252.655 14.55C251.439 14.55 250.147 14.892 249.197 15.329L249.71 16.697C250.432 16.336 251.458 16.051 252.37 16.051C253.662 16.051 254.327 16.583 254.327 17.78V18.331C251.097 18.635 248.608 19.528 248.608 22.036C248.608 24.126 250.09 25.209 252.788 25.209C254.327 25.209 255.638 24.905 256.493 24.468ZM254.327 23.613C254.004 23.784 253.472 23.898 252.94 23.898C251.534 23.898 250.793 23.214 250.793 21.96C250.793 20.383 252.047 19.699 254.327 19.452V23.613ZM263.384 24.905V23.442C263.213 23.499 263.023 23.537 262.814 23.537C262.092 23.537 261.712 23.081 261.712 22.302V16.222H263.384V14.759H261.712V11.852L259.394 12.498V14.759H258.254V16.222H259.394V22.302C259.394 24.107 260.42 25.133 262.13 25.133C262.643 25.133 263.08 25.057 263.384 24.905ZM272.821 24.468V18.084C272.821 15.614 271.339 14.55 268.983 14.55C267.767 14.55 266.475 14.892 265.525 15.329L266.038 16.697C266.76 16.336 267.786 16.051 268.698 16.051C269.99 16.051 270.655 16.583 270.655 17.78V18.331C267.425 18.635 264.936 19.528 264.936 22.036C264.936 24.126 266.418 25.209 269.116 25.209C270.655 25.209 271.966 24.905 272.821 24.468ZM270.655 23.613C270.332 23.784 269.8 23.898 269.268 23.898C267.862 23.898 267.121 23.214 267.121 21.96C267.121 20.383 268.375 19.699 270.655 19.452V23.613ZM43.3923 49L39.2503 43.585L43.0313 38.759H40.5423L37.1793 43.509H37.1413V34.085H34.8613V49H37.1413V43.889H37.1793L40.6943 49H43.3923ZM52.5984 48.43V38.759H50.2804V47.366C49.9194 47.556 49.3114 47.651 48.7794 47.651C47.5634 47.651 46.9744 47.005 46.9744 45.808V38.759H44.6564V45.732C44.6564 48.145 46.0434 49.209 48.7414 49.209C50.2044 49.209 51.7244 48.867 52.5984 48.43ZM57.4786 49V34.085H55.1606V49H57.4786ZM72.8252 47.765C72.8252 47.005 72.1982 46.378 71.4382 46.378C70.6782 46.378 70.0512 47.005 70.0512 47.765C70.0512 48.525 70.6782 49.152 71.4382 49.152C72.1982 49.152 72.8252 48.525 72.8252 47.765ZM67.7712 47.765C67.7712 47.005 67.1442 46.378 66.3842 46.378C65.6242 46.378 64.9972 47.005 64.9972 47.765C64.9972 48.525 65.6242 49.152 66.3842 49.152C67.1442 49.152 67.7712 48.525 67.7712 47.765ZM62.7172 47.765C62.7172 47.005 62.0902 46.378 61.3302 46.378C60.5702 46.378 59.9432 47.005 59.9432 47.765C59.9432 48.525 60.5702 49.152 61.3302 49.152C62.0902 49.152 62.7172 48.525 62.7172 47.765ZM88.9812 49L84.8392 43.585L88.6202 38.759H86.1312L82.7682 43.509H82.7302V34.085H80.4502V49H82.7302V43.889H82.7682L86.2832 49H88.9812ZM98.1873 48.43V38.759H95.8693V47.366C95.5083 47.556 94.9003 47.651 94.3683 47.651C93.1523 47.651 92.5633 47.005 92.5633 45.808V38.759H90.2453V45.732C90.2453 48.145 91.6323 49.209 94.3303 49.209C95.7933 49.209 97.3133 48.867 98.1873 48.43ZM103.067 49V34.085H100.749V49H103.067ZM110.206 48.905V47.442C110.035 47.499 109.845 47.537 109.636 47.537C108.914 47.537 108.534 47.081 108.534 46.302V40.222H110.206V38.759H108.534V35.852L106.216 36.498V38.759H105.076V40.222H106.216V46.302C106.216 48.107 107.242 49.133 108.952 49.133C109.465 49.133 109.902 49.057 110.206 48.905ZM120.275 43.87C120.275 40.792 118.85 38.55 115.943 38.55C113.036 38.55 111.611 40.792 111.611 43.87C111.611 46.967 113.036 49.209 115.943 49.209C118.85 49.209 120.275 46.967 120.275 43.87ZM117.957 43.832C117.957 45.979 117.444 47.67 115.943 47.67C114.442 47.67 113.929 45.979 113.929 43.832C113.929 41.685 114.442 39.994 115.943 39.994C117.444 39.994 117.957 41.704 117.957 43.832ZM135.421 38.759H133.312L131.754 45.409C131.678 45.732 131.602 46.188 131.545 46.796H131.507C131.431 46.169 131.355 45.789 131.26 45.409L129.531 38.759H127.612L125.807 45.409C125.712 45.751 125.617 46.283 125.541 46.796H125.503C125.465 46.264 125.408 45.827 125.313 45.409L123.831 38.759H121.456L124.344 49H126.453L128.201 42.483C128.296 42.122 128.372 41.704 128.429 41.267H128.467C128.505 41.666 128.581 42.122 128.676 42.483L130.443 49H132.533L135.421 38.759ZM145.283 38.759H143.079L141.179 45.523C141.046 45.998 140.951 46.492 140.894 46.967H140.856C140.818 46.454 140.742 45.979 140.628 45.523L138.842 38.759H136.353L139.792 49L138.082 53.085H140.533L145.283 38.759ZM152.921 48.506L152.37 47.1C152.009 47.366 151.496 47.537 150.945 47.537C149.539 47.537 148.684 46.017 148.684 43.832C148.684 41.628 149.539 40.127 150.945 40.127C151.496 40.127 152.047 40.298 152.408 40.564L152.921 39.253C152.332 38.797 151.477 38.55 150.47 38.55C148 38.55 146.309 40.64 146.309 43.87C146.309 47.1 147.981 49.209 150.47 49.209C151.477 49.209 152.332 48.962 152.921 48.506ZM162.817 49V41.818C162.817 40.203 161.886 38.645 159.321 38.645C158.428 38.645 157.649 38.854 157.041 39.196V34.085H154.723V49H157.041V40.507C157.535 40.241 158.105 40.089 158.694 40.089C160.081 40.089 160.499 40.887 160.499 41.875V49H162.817ZM178.418 49.019V39.291C177.62 38.854 176.347 38.55 175.093 38.55C171.844 38.55 170.077 40.659 170.077 44.041C170.077 47.138 171.692 49.057 174.2 49.057C175.074 49.057 175.72 48.905 176.119 48.677V49.247C176.119 50.634 175.473 51.603 173.763 51.603C172.851 51.603 171.92 51.356 171.293 51.014L170.685 52.534C171.483 52.971 172.813 53.275 174.162 53.275C176.803 53.275 178.418 51.774 178.418 49.019ZM176.119 47.347C175.796 47.537 175.321 47.67 174.808 47.67C173.117 47.67 172.376 46.359 172.376 43.927C172.376 41.438 173.155 39.918 174.922 39.918C175.378 39.918 175.815 39.994 176.119 40.146V47.347ZM183.412 35.852C183.412 35.206 182.823 34.674 182.12 34.674C181.417 34.674 180.828 35.206 180.828 35.852C180.828 36.498 181.417 37.011 182.12 37.011C182.823 37.011 183.412 36.498 183.412 35.852ZM183.279 49V38.759H180.961V49H183.279ZM194.009 43.794V43.49C194.009 40.298 192.508 38.55 189.848 38.55C187.074 38.55 185.44 40.64 185.44 43.851C185.44 47.062 187.15 49.209 190.247 49.209C191.539 49.209 192.812 48.905 193.648 48.468L193.097 46.986C192.508 47.309 191.501 47.575 190.57 47.575C188.879 47.575 187.872 46.511 187.701 44.725L194.009 43.794ZM191.786 42.882L187.568 43.547V43.338C187.568 41.324 188.309 39.937 189.772 39.937C191.159 39.937 191.767 41.02 191.786 42.882ZM201.04 38.626C200.85 38.607 200.356 38.569 199.938 38.569C198.285 38.569 197.012 38.854 196.1 39.291V49H198.418V40.279C198.684 40.146 199.102 40.07 199.52 40.07C199.881 40.07 200.261 40.146 200.565 40.279L201.04 38.626ZM213.464 49V47.385H209.835V35.928H207.422V49H213.464ZM224.341 42.464C224.341 38.626 222.802 35.719 219.42 35.719C216.038 35.719 214.499 38.626 214.499 42.464C214.499 46.302 216.038 49.209 219.42 49.209C222.802 49.209 224.341 46.302 224.341 42.464ZM221.909 42.407C221.909 45.2 221.32 47.461 219.42 47.461C217.52 47.461 216.931 45.2 216.931 42.407C216.931 39.614 217.52 37.372 219.42 37.372C221.32 37.372 221.909 39.614 221.909 42.407ZM232.795 37.543V35.928H225.29V37.543H227.836V49H230.249V37.543H232.795ZM241.33 37.543V35.928H233.825V37.543H236.371V49H238.784V37.543H241.33ZM252.117 42.464C252.117 38.626 250.578 35.719 247.196 35.719C243.814 35.719 242.275 38.626 242.275 42.464C242.275 46.302 243.814 49.209 247.196 49.209C250.578 49.209 252.117 46.302 252.117 42.464ZM249.685 42.407C249.685 45.2 249.096 47.461 247.196 47.461C245.296 47.461 244.707 45.2 244.707 42.407C244.707 39.614 245.296 37.372 247.196 37.372C249.096 37.372 249.685 39.614 249.685 42.407ZM256.317 47.765C256.317 47.005 255.69 46.378 254.93 46.378C254.17 46.378 253.543 47.005 253.543 47.765C253.543 48.525 254.17 49.152 254.93 49.152C255.69 49.152 256.317 48.525 256.317 47.765Z" fill="#253F9A"/>
</svg>
