<svg width="168" height="40" viewBox="0 0 168 40" fill="none" xmlns="http://www.w3.org/2000/svg">
<mask id="path-1-inside-1" fill="white">
<path fill-rule="evenodd" clip-rule="evenodd" d="M13.2793 26.0477L0.279297 31.0001L13.323 10.9686C13.8461 4.82403 18.9993 0 25.2793 0H156C162.627 0 168 5.37258 168 12V28C168 34.6274 162.627 40 156 40H25.2793C18.6519 40 13.2793 34.6274 13.2793 28V26.0477Z"/>
</mask>
<path fill-rule="evenodd" clip-rule="evenodd" d="M13.2793 26.0477L0.279297 31.0001L13.323 10.9686C13.8461 4.82403 18.9993 0 25.2793 0H156C162.627 0 168 5.37258 168 12V28C168 34.6274 162.627 40 156 40H25.2793C18.6519 40 13.2793 34.6274 13.2793 28V26.0477Z" fill="#FFEAEA"/>
<path d="M13.2793 26.0477H14.2793V24.5966L12.9233 25.1132L13.2793 26.0477ZM0.279297 31.0001L-0.558702 30.4544L-2.23438 33.0278L0.635292 31.9346L0.279297 31.0001ZM13.323 10.9686L14.161 11.5143L14.2981 11.3037L14.3194 11.0534L13.323 10.9686ZM12.9233 25.1132L-0.0766985 30.0656L0.635292 31.9346L13.6353 26.9822L12.9233 25.1132ZM1.1173 31.5458L14.161 11.5143L12.485 10.4229L-0.558702 30.4544L1.1173 31.5458ZM14.3194 11.0534C14.7988 5.42194 19.5232 1 25.2793 1V-1C18.4755 -1 12.8933 4.22611 12.3266 10.8838L14.3194 11.0534ZM25.2793 1H156V-1H25.2793V1ZM156 1C162.075 1 167 5.92487 167 12H169C169 4.8203 163.18 -1 156 -1V1ZM167 12V28H169V12H167ZM167 28C167 34.0751 162.075 39 156 39V41C163.18 41 169 35.1797 169 28H167ZM156 39H25.2793V41H156V39ZM25.2793 39C19.2042 39 14.2793 34.0751 14.2793 28H12.2793C12.2793 35.1797 18.0996 41 25.2793 41V39ZM14.2793 28V26.0477H12.2793V28H14.2793Z" fill="#253F9A" mask="url(#path-1-inside-1)"/>
</svg>
