<svg width="142" height="97" viewBox="0 0 142 97" fill="none" xmlns="http://www.w3.org/2000/svg">
<g clip-path="url(#clip0)">
<path d="M72.557 24.2285C82.7065 21.7497 93.1836 20.672 103.621 21.3484C115.069 22.0901 128.093 24.8689 136.106 33.8814C145.547 44.2582 143.112 58.4727 132.605 67.2725C133.417 67.1299 136.813 66.4636 138.387 66.4571C138.703 66.4546 139.128 66.5663 138.318 67.8596C135.334 72.6225 131.538 76.2439 127.367 79.8261C127.661 84.7244 127.568 90.7574 126.645 95.9249C126.496 96.7595 125.909 96.6474 125.546 96.3622C122.394 93.8885 119.028 90.4885 116.618 87.5482C109.89 91.2589 103.513 93.9027 96.5045 96.2043C94.4469 96.8517 95.1914 95.8237 95.8296 94.8893C99.4311 89.6412 102.631 84.4214 105.853 78.9258C104.605 78.1522 103.105 77.2646 102.084 76.4272C92.7111 83.7262 81.6951 88.8991 70.4111 92.3445C54.7905 97.114 39.5291 98.1014 27.4848 95.844C14.3681 93.3849 4.77183 87.0202 1.80722 77.334C-2.00769 64.8714 6.56681 52.9234 15.3914 45.1505C16.6041 41.3622 19.8288 33.9739 21.6517 30.1439C15.2353 25.9782 6.36876 20.8763 2.16206 18.03C-1.33605 15.6446 -0.504758 15.3122 4.04279 14.6881C12.8182 13.7856 21.3608 13.7816 29.7907 14.3945C32.3247 9.92946 35.2079 5.41326 38.066 1.14308C38.8463 0.0174724 39.1821 -0.717327 40.1763 1.10389C43.2198 6.3186 46.3581 11.562 48.913 17.047C57.086 18.7271 64.756 21.3618 72.557 24.2285Z" fill="white"/>
<path d="M117.595 63.8521C116.499 66.6479 115.511 69.6212 114.515 72.3231C111.4 72.5093 108.305 72.5789 105.617 72.633C105.423 72.6377 105.321 72.7963 105.56 72.9647C107.687 74.3359 109.66 75.4118 112.289 77.3089C110.682 80.591 108.765 83.5225 106.893 86.6464C106.631 87.0543 106.577 87.3515 107.234 87.0441C110.731 85.4356 114.356 83.2566 117.276 81.2797C119.071 82.8647 120.722 84.7 122.277 86.674C122.309 86.7143 122.383 86.7426 122.393 86.6584C122.731 83.6568 122.602 80.3664 122.266 77.646C124.772 75.6647 127.192 73.5685 129.359 71.1888C129.537 70.9976 129.359 70.9446 129.241 70.9606C126.674 71.2763 123.612 71.6522 121.096 71.8474C120.194 68.8306 119.366 66.3819 118.258 63.8296C118.134 63.565 118.034 63.4322 117.933 63.4322C117.83 63.433 117.725 63.5716 117.595 63.8521ZM97.4759 26.0877C93.1282 26.0877 88.8978 26.3871 85.0449 26.8857C75.2929 28.2047 65.562 30.7992 56.8049 34.8937C56.2958 35.1452 56.5229 35.4855 56.9369 35.4097C99.0549 27.9601 135.564 35.5385 122.824 67.5192C122.661 67.8156 122.929 67.8098 123.037 67.7438C143.275 57.3165 141.38 36.1975 119.199 29.0991C112.432 26.9332 104.788 26.0874 97.4806 26.0874C97.4777 26.0877 97.4774 26.0877 97.4759 26.0877Z" fill="url(#paint0_linear)"/>
<path d="M58.9417 61.4223C58.5965 59.4948 57.3566 52.8435 59.9915 52.5924C62.8029 52.3268 63.7185 59.4109 64.0015 61.1353C64.2602 62.7123 65.3653 69.7293 62.9937 70.135C62.917 70.1477 62.8416 70.1546 62.7673 70.1546C60.2979 70.1535 59.2477 63.1328 58.9417 61.4223ZM59.3747 46.6291C59.2861 46.6291 59.1957 46.6302 59.106 46.632C50.5799 46.9731 49.7074 56.2783 50.8095 62.7631C51.9185 69.4082 55.9584 78.2613 64.1791 76.6292C71.4096 75.1933 72.4429 67.0565 71.5227 60.8885C70.4933 53.9702 67.0519 46.6298 59.3765 46.6291C59.3754 46.6291 59.3758 46.6291 59.3747 46.6291ZM37.5774 77.4387C42.747 77.8067 47.9246 77.8266 53.1011 77.594C52.6788 75.0946 52.2511 72.5963 51.8134 70.0991C49.6772 70.1982 47.54 70.2304 45.402 70.2145C43.997 62.4815 42.6921 54.7304 41.3227 46.9912C38.2156 46.8214 35.1125 46.6069 32.0112 46.3573C33.7951 56.7308 35.7052 67.0815 37.5774 77.4387ZM69.2401 46.2981C69.6222 48.5849 69.9968 50.8728 70.3613 53.1628C71.4879 52.9995 72.6137 52.8315 73.7392 52.6653C74.8163 59.4022 75.926 66.1341 77.083 72.8572C79.2433 72.1932 81.4038 71.5284 83.5544 70.8324C82.4852 64.3952 81.429 57.9566 80.3709 51.5176C81.3981 51.3184 82.4242 51.1141 83.4471 50.8895L82.4081 44.5618C78.0317 45.2364 73.642 45.8145 69.2401 46.2981ZM83.2372 44.4617L84.2777 50.7708C85.2658 50.556 86.2531 50.3354 87.2401 50.1129C88.249 56.2435 89.2367 62.3766 90.2905 68.4989C92.229 67.739 94.1553 66.9494 96.0636 66.1152C95.0648 60.2727 94.133 54.4198 93.146 48.5751C94.0573 48.307 94.9647 48.0232 95.8724 47.7402C95.5509 45.8007 95.2305 43.8604 94.9108 41.9202C91.0453 42.8843 87.154 43.7338 83.2372 44.4617ZM102.492 50.6609C102.153 48.9859 101.355 44.3046 103.022 43.7436C104.628 43.2033 105.449 48.4115 105.686 49.6677C105.957 51.1097 106.899 55.8255 105.191 56.528C105.098 56.5657 105.008 56.5835 104.921 56.5835C103.442 56.5839 102.669 51.4385 102.492 50.6609ZM104.007 38.9629C103.146 38.9629 102.208 39.19 101.2 39.6969C96.1587 42.2294 96.4296 48.7812 97.1949 53.415C97.9357 57.9254 100.425 64.4482 106.046 61.4426C111.041 58.7727 111.495 53.0565 110.644 47.5076C110.06 43.2512 107.748 38.9632 104.007 38.9629Z" fill="url(#paint1_radial)"/>
<path d="M18.9697 48.541C8.8779 57.2773 3.82662 67.2607 6.46653 75.8857C11.2315 91.4521 39.2422 96.7035 69.0167 87.6127C86.4613 82.2855 100.647 73.2157 108.446 63.4873C108.592 63.3052 108.484 63.0875 108.237 63.2925C100.98 69.4365 91.3867 74.8021 80.2742 78.4671C51.4892 87.9614 23.4024 82.4535 17.5546 66.1682C15.5997 60.7241 16.3782 54.763 19.3557 48.885C19.4856 48.6331 19.425 48.414 19.247 48.414C19.1735 48.4143 19.0795 48.4521 18.9697 48.541ZM38.7109 9.22977C36.6066 12.5522 34.4073 15.9282 32.5556 19.5674C26.0312 18.9545 19.3859 18.7749 12.6293 18.9963C12.4603 19.0021 12.4277 19.1614 12.5773 19.2303C18.3465 22.2203 22.795 24.879 27.9001 28.4191C25.699 32.9832 22.7419 38.8413 21.0104 45.006C20.9649 45.154 21.0693 45.2298 21.1948 45.1453C26.4933 41.5852 32.0329 38.4889 37.7594 35.75C42.1986 39.4766 46.3561 43.5512 50.1172 47.9771C50.2367 48.111 50.3257 48.0359 50.3318 47.9034C50.617 42.1767 50.0627 36.5462 48.7029 31.0096C53.2623 29.2188 57.9121 27.6005 62.6261 26.1066C62.7789 26.0579 62.7646 25.9226 62.6283 25.8711C57.0277 23.9809 51.3148 22.4957 45.4965 21.3908C43.7568 17.2716 41.5754 13.2209 38.9426 9.20437C38.9103 9.15902 38.8748 9.14124 38.8404 9.14124C38.7876 9.14124 38.7392 9.18188 38.7109 9.22977Z" fill="url(#paint2_linear)"/>
</g>
<defs>
<linearGradient id="paint0_linear" x1="29.4038" y1="11.0663" x2="123.537" y2="62.4175" gradientUnits="userSpaceOnUse">
<stop stop-color="#FFDD00"/>
<stop offset="1" stop-color="#F6881F"/>
</linearGradient>
<radialGradient id="paint1_radial" cx="0" cy="0" r="1" gradientUnits="userSpaceOnUse" gradientTransform="translate(71.6455 40.6312) scale(49.2275 49.7877)">
<stop stop-color="#00ACEE"/>
<stop offset="1" stop-color="#273B97"/>
</radialGradient>
<linearGradient id="paint2_linear" x1="13.5193" y1="40.1839" x2="107.653" y2="91.5352" gradientUnits="userSpaceOnUse">
<stop stop-color="#FFDD00"/>
<stop offset="1" stop-color="#F6881F"/>
</linearGradient>
<clipPath id="clip0">
<rect width="142" height="97" fill="white"/>
</clipPath>
</defs>
</svg>
