<svg width="145" height="59" viewBox="0 0 145 59" fill="none" xmlns="http://www.w3.org/2000/svg">
<mask id="path-1-inside-1" fill="white">
<path fill-rule="evenodd" clip-rule="evenodd" d="M12 0C5.37258 0 0 5.37258 0 12V32C0 38.6274 5.37258 44 12 44H116L138.5 59L133.167 44H133C139.627 44 145 38.6274 145 32V12C145 5.37258 139.627 0 133 0H12Z"/>
</mask>
<path fill-rule="evenodd" clip-rule="evenodd" d="M12 0C5.37258 0 0 5.37258 0 12V32C0 38.6274 5.37258 44 12 44H116L138.5 59L133.167 44H133C139.627 44 145 38.6274 145 32V12C145 5.37258 139.627 0 133 0H12Z" fill="#EBEEFA"/>
<path d="M116 44L116.555 43.1679L116.303 43H116V44ZM138.5 59L137.945 59.8321L140.451 61.5026L139.442 58.665L138.5 59ZM133.167 44L134.109 43.665L133.873 43H133.167V44ZM1 12C1 5.92487 5.92487 1 12 1V-1C4.8203 -1 -1 4.8203 -1 12H1ZM1 32V12H-1V32H1ZM12 43C5.92487 43 1 38.0751 1 32H-1C-1 39.1797 4.8203 45 12 45V43ZM116 43H12V45H116V43ZM139.055 58.1679L116.555 43.1679L115.445 44.8321L137.945 59.8321L139.055 58.1679ZM132.225 44.335L137.558 59.335L139.442 58.665L134.109 43.665L132.225 44.335ZM133 45H133.167V43H133V45ZM144 32C144 38.0751 139.075 43 133 43V45C140.18 45 146 39.1797 146 32H144ZM144 12V32H146V12H144ZM133 1C139.075 1 144 5.92487 144 12H146C146 4.8203 140.18 -1 133 -1V1ZM12 1H133V-1H12V1Z" fill="#253F9A" mask="url(#path-1-inside-1)"/>
</svg>
