<svg width="147" height="78" viewBox="0 0 147 78" fill="none" xmlns="http://www.w3.org/2000/svg">
<mask id="path-1-inside-1" fill="white">
<path fill-rule="evenodd" clip-rule="evenodd" d="M122.167 26L128 0.5L107 26L12 26C5.37258 26 0 31.3726 0 38V66C0 72.6274 5.37259 78 12 78H135C141.627 78 147 72.6274 147 66V38C147 31.3726 141.627 26 135 26H122.167Z"/>
</mask>
<path fill-rule="evenodd" clip-rule="evenodd" d="M122.167 26L128 0.5L107 26L12 26C5.37258 26 0 31.3726 0 38V66C0 72.6274 5.37259 78 12 78H135C141.627 78 147 72.6274 147 66V38C147 31.3726 141.627 26 135 26H122.167Z" fill="#EBEEFA"/>
<path d="M128 0.5L128.975 0.722996L129.919 -3.4028L127.228 -0.135708L128 0.5ZM122.167 26L121.192 25.777L120.912 27H122.167V26ZM107 26V27H107.472L107.772 26.6357L107 26ZM12 26V25V26ZM127.025 0.277004L121.192 25.777L123.142 26.223L128.975 0.722996L127.025 0.277004ZM107.772 26.6357L128.772 1.13571L127.228 -0.135708L106.228 25.3643L107.772 26.6357ZM12 27L107 27V25L12 25V27ZM1 38C1 31.9249 5.92487 27 12 27V25C4.8203 25 -1 30.8203 -1 38H1ZM1 66V38H-1V66H1ZM12 77C5.92487 77 1 72.0751 1 66H-1C-1 73.1797 4.8203 79 12 79V77ZM135 77H12V79H135V77ZM146 66C146 72.0751 141.075 77 135 77V79C142.18 79 148 73.1797 148 66H146ZM146 38V66H148V38H146ZM135 27C141.075 27 146 31.9249 146 38H148C148 30.8203 142.18 25 135 25V27ZM122.167 27H135V25H122.167V27Z" fill="#253F9A" mask="url(#path-1-inside-1)"/>
</svg>
