<svg width="220" height="295" viewBox="0 0 220 295" fill="none" xmlns="http://www.w3.org/2000/svg">
<mask id="path-1-inside-1" fill="white">
<path fill-rule="evenodd" clip-rule="evenodd" d="M163.059 213L188 0L144.103 213H12C5.37258 213 0 218.373 0 225V283C0 289.627 5.37258 295 12 295H208C214.627 295 220 289.627 220 283V225C220 218.373 214.627 213 208 213H163.059Z"/>
</mask>
<path fill-rule="evenodd" clip-rule="evenodd" d="M163.059 213L188 0L144.103 213H12C5.37258 213 0 218.373 0 225V283C0 289.627 5.37258 295 12 295H208C214.627 295 220 289.627 220 283V225C220 218.373 214.627 213 208 213H163.059Z" fill="#FFFEE1"/>
<path d="M188 0L188.993 0.116301L187.021 -0.201847L188 0ZM163.059 213L162.065 212.884L161.935 214H163.059V213ZM144.103 213V214H144.918L145.082 213.202L144.103 213ZM187.007 -0.116301L162.065 212.884L164.052 213.116L188.993 0.116301L187.007 -0.116301ZM145.082 213.202L188.979 0.201847L187.021 -0.201847L143.124 212.798L145.082 213.202ZM12 214H144.103V212H12V214ZM1 225C1 218.925 5.92487 214 12 214V212C4.8203 212 -1 217.82 -1 225H1ZM1 283V225H-1V283H1ZM12 294C5.92487 294 1 289.075 1 283H-1C-1 290.18 4.8203 296 12 296V294ZM208 294H12V296H208V294ZM219 283C219 289.075 214.075 294 208 294V296C215.18 296 221 290.18 221 283H219ZM219 225V283H221V225H219ZM208 214C214.075 214 219 218.925 219 225H221C221 217.82 215.18 212 208 212V214ZM163.059 214H208V212H163.059V214Z" fill="#253F9A" mask="url(#path-1-inside-1)"/>
</svg>
