<svg width="152" height="62" viewBox="0 0 152 62" fill="none" xmlns="http://www.w3.org/2000/svg">
<mask id="path-1-inside-1" fill="white">
<path fill-rule="evenodd" clip-rule="evenodd" d="M12 0C5.37258 0 0 5.37258 0 12V36C0 42.6274 5.37258 48 12 48H117.333L109 62L134.5 48H140C146.627 48 152 42.6274 152 36V12C152 5.37258 146.627 0 140 0H12Z"/>
</mask>
<path fill-rule="evenodd" clip-rule="evenodd" d="M12 0C5.37258 0 0 5.37258 0 12V36C0 42.6274 5.37258 48 12 48H117.333L109 62L134.5 48H140C146.627 48 152 42.6274 152 36V12C152 5.37258 146.627 0 140 0H12Z" fill="#EBEEFA"/>
<path d="M117.333 48L118.193 48.5115L119.092 47H117.333V48ZM109 62L108.141 61.4885L106.263 64.6437L109.481 62.8766L109 62ZM134.5 48V47H134.244L134.019 47.1234L134.5 48ZM1 12C1 5.92487 5.92487 1 12 1V-1C4.8203 -1 -1 4.8203 -1 12H1ZM1 36V12H-1V36H1ZM12 47C5.92487 47 1 42.0751 1 36H-1C-1 43.1797 4.8203 49 12 49V47ZM117.333 47H12V49H117.333V47ZM116.474 47.4885L108.141 61.4885L109.859 62.5115L118.193 48.5115L116.474 47.4885ZM109.481 62.8766L134.981 48.8766L134.019 47.1234L108.519 61.1234L109.481 62.8766ZM140 47H134.5V49H140V47ZM151 36C151 42.0751 146.075 47 140 47V49C147.18 49 153 43.1797 153 36H151ZM151 12V36H153V12H151ZM140 1C146.075 1 151 5.92487 151 12H153C153 4.8203 147.18 -1 140 -1V1ZM12 1H140V-1H12V1Z" fill="#253F9A" mask="url(#path-1-inside-1)"/>
</svg>
