<svg width="216" height="84" viewBox="0 0 216 84" fill="none" xmlns="http://www.w3.org/2000/svg">
<mask id="path-1-inside-1" fill="white">
<path fill-rule="evenodd" clip-rule="evenodd" d="M12 0C5.37258 0 0 5.37258 0 12V72C0 78.6274 5.37258 84 12 84H184C190.627 84 196 78.6274 196 72V30.1952L215.5 40.5L196 12.9146V12C196 5.37258 190.627 0 184 0H12Z"/>
</mask>
<path fill-rule="evenodd" clip-rule="evenodd" d="M12 0C5.37258 0 0 5.37258 0 12V72C0 78.6274 5.37258 84 12 84H184C190.627 84 196 78.6274 196 72V30.1952L215.5 40.5L196 12.9146V12C196 5.37258 190.627 0 184 0H12Z" fill="#FFFEE1"/>
<path d="M196 30.1952L196.467 29.3111L195 28.5357V30.1952H196ZM215.5 40.5L215.033 41.3841L218.731 43.3386L216.317 39.9228L215.5 40.5ZM196 12.9146H195V13.2324L195.183 13.4919L196 12.9146ZM1 12C1 5.92487 5.92487 1 12 1V-1C4.8203 -1 -1 4.8203 -1 12H1ZM1 72V12H-1V72H1ZM12 83C5.92486 83 1 78.0751 1 72H-1C-1 79.1797 4.82029 85 12 85V83ZM184 83H12V85H184V83ZM195 72C195 78.0751 190.075 83 184 83V85C191.18 85 197 79.1797 197 72H195ZM195 30.1952V72H197V30.1952H195ZM195.533 31.0793L215.033 41.3841L215.967 39.6159L196.467 29.3111L195.533 31.0793ZM216.317 39.9228L196.817 12.3374L195.183 13.4919L214.683 41.0772L216.317 39.9228ZM195 12V12.9146H197V12H195ZM184 1C190.075 1 195 5.92487 195 12H197C197 4.8203 191.18 -1 184 -1V1ZM12 1H184V-1H12V1Z" fill="#253F9A" mask="url(#path-1-inside-1)"/>
</svg>
