<svg width="185" height="62" viewBox="0 0 185 62" fill="none" xmlns="http://www.w3.org/2000/svg">
<mask id="path-1-inside-1" fill="white">
<path fill-rule="evenodd" clip-rule="evenodd" d="M12.2793 0C5.65188 0 0.279297 5.37258 0.279297 12V28C0.279297 34.6274 5.65188 40 12.2793 40H30.4386L18 62L45.1053 40H173C179.627 40 185 34.6274 185 28V12C185 5.37258 179.627 0 173 0H12.2793Z"/>
</mask>
<path fill-rule="evenodd" clip-rule="evenodd" d="M12.2793 0C5.65188 0 0.279297 5.37258 0.279297 12V28C0.279297 34.6274 5.65188 40 12.2793 40H30.4386L18 62L45.1053 40H173C179.627 40 185 34.6274 185 28V12C185 5.37258 179.627 0 173 0H12.2793Z" fill="#FFEAEA"/>
<path d="M30.4386 40L31.3091 40.4922L32.1527 39H30.4386V40ZM18 62L17.1295 61.5078L14.5312 66.1033L18.6302 62.7764L18 62ZM45.1053 40V39H44.7506L44.4751 39.2236L45.1053 40ZM1.2793 12C1.2793 5.92487 6.20416 1 12.2793 1V-1C5.0996 -1 -0.720703 4.8203 -0.720703 12H1.2793ZM1.2793 28V12H-0.720703V28H1.2793ZM12.2793 39C6.20416 39 1.2793 34.0751 1.2793 28H-0.720703C-0.720703 35.1797 5.09959 41 12.2793 41V39ZM30.4386 39H12.2793V41H30.4386V39ZM29.5681 39.5078L17.1295 61.5078L18.8705 62.4922L31.3091 40.4922L29.5681 39.5078ZM18.6302 62.7764L45.7355 40.7764L44.4751 39.2236L17.3698 61.2236L18.6302 62.7764ZM173 39H45.1053V41H173V39ZM184 28C184 34.0751 179.075 39 173 39V41C180.18 41 186 35.1797 186 28H184ZM184 12V28H186V12H184ZM173 1C179.075 1 184 5.92487 184 12H186C186 4.8203 180.18 -1 173 -1V1ZM12.2793 1H173V-1H12.2793V1Z" fill="#253F9A" mask="url(#path-1-inside-1)"/>
</svg>
