<svg width="172" height="41" viewBox="0 0 172 41" fill="none" xmlns="http://www.w3.org/2000/svg">
<mask id="path-1-inside-1" fill="white">
<path fill-rule="evenodd" clip-rule="evenodd" d="M25.2793 0C18.6519 0 13.2793 5.37258 13.2793 12V13.6071L0.279297 41.0001L14.2335 31.6973C16.0614 35.9902 20.3189 39 25.2793 39H160C166.627 39 172 33.6274 172 27V12C172 5.37258 166.627 0 160 0H25.2793Z"/>
</mask>
<path fill-rule="evenodd" clip-rule="evenodd" d="M25.2793 0C18.6519 0 13.2793 5.37258 13.2793 12V13.6071L0.279297 41.0001L14.2335 31.6973C16.0614 35.9902 20.3189 39 25.2793 39H160C166.627 39 172 33.6274 172 27V12C172 5.37258 166.627 0 160 0H25.2793Z" fill="#EBEEFA"/>
<path d="M13.2793 13.6071L14.1827 14.0359L14.2793 13.8324V13.6071H13.2793ZM0.279297 41.0001L-0.624129 40.5713L-2.17422 43.8376L0.833997 41.8321L0.279297 41.0001ZM14.2335 31.6973L15.1536 31.3055L14.6815 30.1968L13.6788 30.8652L14.2335 31.6973ZM14.2793 12C14.2793 5.92487 19.2042 1 25.2793 1V-1C18.0996 -1 12.2793 4.8203 12.2793 12H14.2793ZM14.2793 13.6071V12H12.2793V13.6071H14.2793ZM1.18272 41.4288L14.1827 14.0359L12.3759 13.1784L-0.624129 40.5713L1.18272 41.4288ZM13.6788 30.8652L-0.275403 40.168L0.833997 41.8321L14.7882 32.5293L13.6788 30.8652ZM25.2793 38C20.7338 38 16.83 35.2427 15.1536 31.3055L13.3134 32.089C15.2928 36.7377 19.9039 40 25.2793 40V38ZM160 38H25.2793V40H160V38ZM171 27C171 33.0751 166.075 38 160 38V40C167.18 40 173 34.1797 173 27H171ZM171 12V27H173V12H171ZM160 1C166.075 1 171 5.92487 171 12H173C173 4.8203 167.18 -1 160 -1V1ZM25.2793 1H160V-1H25.2793V1Z" fill="#253F9A" mask="url(#path-1-inside-1)"/>
</svg>
