<svg width="273" height="102" viewBox="0 0 273 102" fill="none" xmlns="http://www.w3.org/2000/svg">
<mask id="path-1-inside-1" fill="white">
<path fill-rule="evenodd" clip-rule="evenodd" d="M12 0C5.37258 0 0 5.37258 0 12V76C0 82.6274 5.37258 88 12 88H18.3333L9 102L38.5001 88H261C267.627 88 273 82.6274 273 76V12C273 5.37258 267.627 0 261 0H12Z"/>
</mask>
<path fill-rule="evenodd" clip-rule="evenodd" d="M12 0C5.37258 0 0 5.37258 0 12V76C0 82.6274 5.37258 88 12 88H18.3333L9 102L38.5001 88H261C267.627 88 273 82.6274 273 76V12C273 5.37258 267.627 0 261 0H12Z" fill="#EBEEFA"/>
<path d="M18.3333 88L19.1654 88.5547L20.2019 87H18.3333V88ZM9 102L8.16795 101.445L6.16247 104.454L9.42874 102.903L9 102ZM38.5001 88V87H38.2748L38.0713 87.0966L38.5001 88ZM1 12C1 5.92487 5.92487 1 12 1V-1C4.8203 -1 -1 4.8203 -1 12H1ZM1 76V12H-1V76H1ZM12 87C5.92487 87 1 82.0751 1 76H-1C-1 83.1797 4.8203 89 12 89V87ZM18.3333 87H12V89H18.3333V87ZM17.5013 87.4453L8.16795 101.445L9.83205 102.555L19.1654 88.5547L17.5013 87.4453ZM9.42874 102.903L38.9288 88.9034L38.0713 87.0966L8.57126 101.097L9.42874 102.903ZM261 87H38.5001V89H261V87ZM272 76C272 82.0751 267.075 87 261 87V89C268.18 89 274 83.1797 274 76H272ZM272 12V76H274V12H272ZM261 1C267.075 1 272 5.92487 272 12H274C274 4.8203 268.18 -1 261 -1V1ZM12 1H261V-1H12V1Z" fill="#253F9A" mask="url(#path-1-inside-1)"/>
</svg>
