<svg width="254" height="324" viewBox="0 0 254 324" fill="none" xmlns="http://www.w3.org/2000/svg">
<mask id="path-1-inside-1" fill="white">
<path fill-rule="evenodd" clip-rule="evenodd" d="M180 227L204 0L195.407 227H242C248.627 227 254 232.373 254 239V311.787C254 318.414 248.627 323.786 242 323.786H12C5.37258 323.786 0 318.414 0 311.786V239C0 232.373 5.37258 227 12 227H180Z"/>
</mask>
<path fill-rule="evenodd" clip-rule="evenodd" d="M180 227L204 0L195.407 227H242C248.627 227 254 232.373 254 239V311.787C254 318.414 248.627 323.786 242 323.786H12C5.37258 323.786 0 318.414 0 311.786V239C0 232.373 5.37258 227 12 227H180Z" fill="#FFFEE1"/>
<path d="M204 0L204.999 0.0378284L203.006 -0.105141L204 0ZM180 227V228H180.9L180.994 227.105L180 227ZM195.407 227L194.408 226.962L194.368 228H195.407V227ZM203.006 -0.105141L179.006 226.895L180.994 227.105L204.994 0.105141L203.006 -0.105141ZM196.406 227.038L204.999 0.0378284L203.001 -0.0378284L194.408 226.962L196.406 227.038ZM195.407 228H242V226H195.407V228ZM242 228C248.075 228 253 232.925 253 239H255C255 231.82 249.18 226 242 226V228ZM253 239V311.787H255V239H253ZM253 311.787C253 317.862 248.075 322.786 242 322.786V324.786C249.18 324.786 255 318.966 255 311.787H253ZM242 322.786H12V324.786H242V322.786ZM12 322.786C5.92486 322.786 1 317.862 1 311.786H-1C-1 318.966 4.82029 324.786 12 324.786V322.786ZM1 311.786V239H-1V311.786H1ZM1 239C1 232.925 5.92487 228 12 228V226C4.8203 226 -1 231.82 -1 239H1ZM12 228H180V226H12V228Z" fill="#253F9A" mask="url(#path-1-inside-1)"/>
</svg>
