<svg width="266" height="81" viewBox="0 0 266 81" fill="none" xmlns="http://www.w3.org/2000/svg">
<mask id="path-1-inside-1" fill="white">
<path fill-rule="evenodd" clip-rule="evenodd" d="M12.2793 0C5.65188 0 0.279297 5.37258 0.279297 12V52C0.279297 58.6274 5.65187 64 12.2793 64H52.0539L46 80.25L65.5957 64H254C260.627 64 266 58.6274 266 52V12C266 5.37258 260.627 0 254 0H12.2793Z"/>
</mask>
<path fill-rule="evenodd" clip-rule="evenodd" d="M12.2793 0C5.65188 0 0.279297 5.37258 0.279297 12V52C0.279297 58.6274 5.65187 64 12.2793 64H52.0539L46 80.25L65.5957 64H254C260.627 64 266 58.6274 266 52V12C266 5.37258 260.627 0 254 0H12.2793Z" fill="#FFEAEA"/>
<path d="M52.0539 64L52.991 64.3491L53.4936 63H52.0539V64ZM46 80.25L45.0629 79.9009L43.7554 83.4104L46.6383 81.0198L46 80.25ZM65.5957 64V63H65.235L64.9573 63.2302L65.5957 64ZM1.2793 12C1.2793 5.92487 6.20417 1 12.2793 1V-1C5.0996 -1 -0.720703 4.8203 -0.720703 12H1.2793ZM1.2793 52V12H-0.720703V52H1.2793ZM12.2793 63C6.20416 63 1.2793 58.0751 1.2793 52H-0.720703C-0.720703 59.1797 5.09959 65 12.2793 65V63ZM52.0539 63H12.2793V65H52.0539V63ZM51.1169 63.6509L45.0629 79.9009L46.9371 80.5991L52.991 64.3491L51.1169 63.6509ZM46.6383 81.0198L66.234 64.7698L64.9573 63.2302L45.3617 79.4802L46.6383 81.0198ZM254 63H65.5957V65H254V63ZM265 52C265 58.0751 260.075 63 254 63V65C261.18 65 267 59.1797 267 52H265ZM265 12V52H267V12H265ZM254 1C260.075 1 265 5.92487 265 12H267C267 4.8203 261.18 -1 254 -1V1ZM12.2793 1H254V-1H12.2793V1Z" fill="#253F9A" mask="url(#path-1-inside-1)"/>
</svg>
