<svg width="150" height="79" viewBox="0 0 150 79" fill="none" xmlns="http://www.w3.org/2000/svg">
<mask id="path-1-inside-1" fill="white">
<path fill-rule="evenodd" clip-rule="evenodd" d="M12.2793 0C5.65188 0 0.279297 5.37258 0.279297 12V52C0.279297 58.6274 5.65188 64 12.2793 64H122.225L140.75 78.25L135.683 64H138C144.627 64 150 58.6274 150 52V12C150 5.37258 144.627 0 138 0H12.2793Z"/>
</mask>
<path fill-rule="evenodd" clip-rule="evenodd" d="M12.2793 0C5.65188 0 0.279297 5.37258 0.279297 12V52C0.279297 58.6274 5.65188 64 12.2793 64H122.225L140.75 78.25L135.683 64H138C144.627 64 150 58.6274 150 52V12C150 5.37258 144.627 0 138 0H12.2793Z" fill="#FFEAEA"/>
<path d="M122.225 64L122.835 63.2074L122.565 63H122.225V64ZM140.75 78.25L140.14 79.0426L142.828 81.1104L141.692 77.915L140.75 78.25ZM135.683 64V63H134.267L134.741 64.335L135.683 64ZM1.2793 12C1.2793 5.92487 6.20416 1 12.2793 1V-1C5.0996 -1 -0.720703 4.8203 -0.720703 12H1.2793ZM1.2793 52V12H-0.720703V52H1.2793ZM12.2793 63C6.20417 63 1.2793 58.0751 1.2793 52H-0.720703C-0.720703 59.1797 5.0996 65 12.2793 65V63ZM122.225 63H12.2793V65H122.225V63ZM141.36 77.4574L122.835 63.2074L121.615 64.7926L140.14 79.0426L141.36 77.4574ZM134.741 64.335L139.808 78.585L141.692 77.915L136.626 63.665L134.741 64.335ZM138 63H135.683V65H138V63ZM149 52C149 58.0751 144.075 63 138 63V65C145.18 65 151 59.1797 151 52H149ZM149 12V52H151V12H149ZM138 1C144.075 1 149 5.92487 149 12H151C151 4.8203 145.18 -1 138 -1V1ZM12.2793 1H138V-1H12.2793V1Z" fill="#253F9A" mask="url(#path-1-inside-1)"/>
</svg>
