<svg width="193" height="50" viewBox="0 0 193 50" fill="none" xmlns="http://www.w3.org/2000/svg">
<mask id="path-1-inside-1" fill="white">
<path fill-rule="evenodd" clip-rule="evenodd" d="M12 0C5.37258 0 0 5.37258 0 12V38C0 44.6274 5.37258 50 12 50H168C174.627 50 180 44.6274 180 38V32.3334L193 41.0001L180 13.6071V12C180 5.37258 174.627 0 168 0H12Z"/>
</mask>
<path fill-rule="evenodd" clip-rule="evenodd" d="M12 0C5.37258 0 0 5.37258 0 12V38C0 44.6274 5.37258 50 12 50H168C174.627 50 180 44.6274 180 38V32.3334L193 41.0001L180 13.6071V12C180 5.37258 174.627 0 168 0H12Z" fill="#EBEEFA"/>
<path d="M180 32.3334L180.555 31.5014L179 30.4649V32.3334H180ZM193 41.0001L192.445 41.8321L195.454 43.8376L193.903 40.5713L193 41.0001ZM180 13.6071H179V13.8324L179.097 14.0359L180 13.6071ZM1 12C1 5.92487 5.92487 1 12 1V-1C4.8203 -1 -1 4.8203 -1 12H1ZM1 38V12H-1V38H1ZM12 49C5.92487 49 1 44.0751 1 38H-1C-1 45.1797 4.8203 51 12 51V49ZM168 49H12V51H168V49ZM179 38C179 44.0751 174.075 49 168 49V51C175.18 51 181 45.1797 181 38H179ZM179 32.3334V38H181V32.3334H179ZM179.445 33.1655L192.445 41.8321L193.555 40.168L180.555 31.5014L179.445 33.1655ZM193.903 40.5713L180.903 13.1784L179.097 14.0359L192.097 41.4288L193.903 40.5713ZM179 12V13.6071H181V12H179ZM168 1C174.075 1 179 5.92487 179 12H181C181 4.8203 175.18 -1 168 -1V1ZM12 1H168V-1H12V1Z" fill="#253F9A" mask="url(#path-1-inside-1)"/>
</svg>
