<svg width="309" height="85" viewBox="0 0 309 85" fill="none" xmlns="http://www.w3.org/2000/svg">
<mask id="path-1-inside-1" fill="white">
<path fill-rule="evenodd" clip-rule="evenodd" d="M12 0C5.37258 0 0 5.37258 0 12V73C0 79.6274 5.37259 85 12 85H277C283.627 85 289 79.6274 289 73V69.1952L308.5 79.5L289 51.9146V12C289 5.37258 283.627 0 277 0H12Z"/>
</mask>
<path fill-rule="evenodd" clip-rule="evenodd" d="M12 0C5.37258 0 0 5.37258 0 12V73C0 79.6274 5.37259 85 12 85H277C283.627 85 289 79.6274 289 73V69.1952L308.5 79.5L289 51.9146V12C289 5.37258 283.627 0 277 0H12Z" fill="#FFFEE1"/>
<path d="M289 69.1952L289.467 68.3111L288 67.5357V69.1952H289ZM308.5 79.5L308.033 80.3841L311.731 82.3386L309.317 78.9228L308.5 79.5ZM289 51.9146H288V52.2324L288.183 52.4919L289 51.9146ZM1 12C1 5.92487 5.92487 1 12 1V-1C4.8203 -1 -1 4.8203 -1 12H1ZM1 73V12H-1V73H1ZM12 84C5.92487 84 1 79.0751 1 73H-1C-1 80.1797 4.8203 86 12 86V84ZM277 84H12V86H277V84ZM288 73C288 79.0751 283.075 84 277 84V86C284.18 86 290 80.1797 290 73H288ZM288 69.1952V73H290V69.1952H288ZM288.533 70.0793L308.033 80.3841L308.967 78.6159L289.467 68.3111L288.533 70.0793ZM309.317 78.9228L289.817 51.3374L288.183 52.4919L307.683 80.0772L309.317 78.9228ZM288 12V51.9146H290V12H288ZM277 1C283.075 1 288 5.92487 288 12H290C290 4.8203 284.18 -1 277 -1V1ZM12 1H277V-1H12V1Z" fill="#253F9A" mask="url(#path-1-inside-1)"/>
</svg>
