<svg width="480" height="111" viewBox="0 0 480 111" fill="none" xmlns="http://www.w3.org/2000/svg">
<mask id="path-1-inside-1" fill="white">
<path fill-rule="evenodd" clip-rule="evenodd" d="M12 0C5.37258 0 0 5.37258 0 12V76C0 82.6274 5.37257 88 12 88H377L399 111L393.407 88H468C474.627 88 480 82.6274 480 76V12C480 5.37258 474.627 0 468 0H12Z"/>
</mask>
<path fill-rule="evenodd" clip-rule="evenodd" d="M12 0C5.37258 0 0 5.37258 0 12V76C0 82.6274 5.37257 88 12 88H377L399 111L393.407 88H468C474.627 88 480 82.6274 480 76V12C480 5.37258 474.627 0 468 0H12Z" fill="#FFFEE1"/>
<path d="M377 88L377.723 87.3088L377.427 87H377V88ZM399 111L398.277 111.691L400.852 114.383L399.972 110.764L399 111ZM393.407 88V87H392.134L392.435 88.2363L393.407 88ZM1 12C1 5.92487 5.92487 1 12 1V-1C4.8203 -1 -1 4.8203 -1 12H1ZM1 76V12H-1V76H1ZM12 87C5.92486 87 1 82.0751 1 76H-1C-1 83.1797 4.82029 89 12 89V87ZM377 87H12V89H377V87ZM399.723 110.309L377.723 87.3088L376.277 88.6912L398.277 111.691L399.723 110.309ZM392.435 88.2363L398.028 111.236L399.972 110.764L394.378 87.7637L392.435 88.2363ZM468 87H393.407V89H468V87ZM479 76C479 82.0751 474.075 87 468 87V89C475.18 89 481 83.1797 481 76H479ZM479 12V76H481V12H479ZM468 1C474.075 1 479 5.92487 479 12H481C481 4.8203 475.18 -1 468 -1V1ZM12 1H468V-1H12V1Z" fill="#253F9A" mask="url(#path-1-inside-1)"/>
</svg>
