<svg width="176" height="102" viewBox="0 0 176 102" fill="none" xmlns="http://www.w3.org/2000/svg">
<mask id="path-1-inside-1" fill="white">
<path fill-rule="evenodd" clip-rule="evenodd" d="M12 0C5.37258 0 0 5.37258 0 12V76C0 82.6274 5.37258 88 12 88H12.3333L2.99992 102L32.5 88H164C170.627 88 176 82.6274 176 76V12C176 5.37258 170.627 0 164 0H12Z"/>
</mask>
<path fill-rule="evenodd" clip-rule="evenodd" d="M12 0C5.37258 0 0 5.37258 0 12V76C0 82.6274 5.37258 88 12 88H12.3333L2.99992 102L32.5 88H164C170.627 88 176 82.6274 176 76V12C176 5.37258 170.627 0 164 0H12Z" fill="#EBEEFA"/>
<path d="M12.3333 88L13.1653 88.5547L14.2018 87H12.3333V88ZM2.99992 102L2.16787 101.445L0.162387 104.454L3.42866 102.903L2.99992 102ZM32.5 88V87H32.2748L32.0713 87.0966L32.5 88ZM1 12C1 5.92487 5.92487 1 12 1V-1C4.8203 -1 -1 4.8203 -1 12H1ZM1 76V12H-1V76H1ZM12 87C5.92487 87 1 82.0751 1 76H-1C-1 83.1797 4.8203 89 12 89V87ZM12.3333 87H12V89H12.3333V87ZM11.5012 87.4453L2.16787 101.445L3.83197 102.555L13.1653 88.5547L11.5012 87.4453ZM3.42866 102.903L32.9287 88.9034L32.0713 87.0966L2.57117 101.097L3.42866 102.903ZM164 87H32.5V89H164V87ZM175 76C175 82.0751 170.075 87 164 87V89C171.18 89 177 83.1797 177 76H175ZM175 12V76H177V12H175ZM164 1C170.075 1 175 5.92487 175 12H177C177 4.8203 171.18 -1 164 -1V1ZM12 1H164V-1H12V1Z" fill="#253F9A" mask="url(#path-1-inside-1)"/>
</svg>
