<svg width="287" height="102" viewBox="0 0 287 102" fill="none" xmlns="http://www.w3.org/2000/svg">
<mask id="path-1-inside-1" fill="white">
<path fill-rule="evenodd" clip-rule="evenodd" d="M12 0C5.37258 0 0 5.37258 0 12V76C0 82.6274 5.37258 88 12 88H213L237 102L229.407 88H275C281.627 88 287 82.6274 287 76V12C287 5.37258 281.627 0 275 0H12Z"/>
</mask>
<path fill-rule="evenodd" clip-rule="evenodd" d="M12 0C5.37258 0 0 5.37258 0 12V76C0 82.6274 5.37258 88 12 88H213L237 102L229.407 88H275C281.627 88 287 82.6274 287 76V12C287 5.37258 281.627 0 275 0H12Z" fill="#FFFEE1"/>
<path d="M213 88L213.504 87.1362L213.27 87H213V88ZM237 102L236.496 102.864L239.583 104.664L237.879 101.523L237 102ZM229.407 88V87H227.727L228.528 88.4768L229.407 88ZM1 12C1 5.92487 5.92487 1 12 1V-1C4.8203 -1 -1 4.8203 -1 12H1ZM1 76V12H-1V76H1ZM12 87C5.92486 87 1 82.0751 1 76H-1C-1 83.1797 4.82029 89 12 89V87ZM213 87H12V89H213V87ZM237.504 101.136L213.504 87.1362L212.496 88.8638L236.496 102.864L237.504 101.136ZM228.528 88.4768L236.121 102.477L237.879 101.523L230.286 87.5232L228.528 88.4768ZM275 87H229.407V89H275V87ZM286 76C286 82.0751 281.075 87 275 87V89C282.18 89 288 83.1797 288 76H286ZM286 12V76H288V12H286ZM275 1C281.075 1 286 5.92487 286 12H288C288 4.8203 282.18 -1 275 -1V1ZM12 1H275V-1H12V1Z" fill="#253F9A" mask="url(#path-1-inside-1)"/>
</svg>
