<svg width="149" height="257" viewBox="0 0 149 257" fill="none" xmlns="http://www.w3.org/2000/svg">
<mask id="path-1-inside-1" fill="white">
<path fill-rule="evenodd" clip-rule="evenodd" d="M75 151L111.5 0.5L90.4068 151H137C143.627 151 149 156.373 149 163V244.787C149 251.414 143.627 256.786 137 256.786H12C5.37258 256.786 0 251.414 0 244.787V163C0 156.373 5.37258 151 12 151H75Z"/>
</mask>
<path fill-rule="evenodd" clip-rule="evenodd" d="M75 151L111.5 0.5L90.4068 151H137C143.627 151 149 156.373 149 163V244.787C149 251.414 143.627 256.786 137 256.786H12C5.37258 256.786 0 251.414 0 244.787V163C0 156.373 5.37258 151 12 151H75Z" fill="#FFFEE1"/>
<path d="M111.5 0.5L112.49 0.638798L110.528 0.264308L111.5 0.5ZM75 151V152H75.7865L75.9718 151.236L75 151ZM90.4068 151L89.4165 150.861L89.2569 152H90.4068V151ZM110.528 0.264308L74.0282 150.764L75.9718 151.236L112.472 0.735692L110.528 0.264308ZM91.3971 151.139L112.49 0.638798L110.51 0.361202L89.4165 150.861L91.3971 151.139ZM90.4068 152H137V150H90.4068V152ZM137 152C143.075 152 148 156.925 148 163H150C150 155.82 144.18 150 137 150V152ZM148 163V244.787H150V163H148ZM148 244.787C148 250.862 143.075 255.786 137 255.786V257.786C144.18 257.786 150 251.966 150 244.787H148ZM137 255.786H12V257.786H137V255.786ZM12 255.786C5.92487 255.786 1 250.862 1 244.787H-1C-1 251.966 4.8203 257.786 12 257.786V255.786ZM1 244.787V163H-1V244.787H1ZM1 163C1 156.925 5.92487 152 12 152V150C4.8203 150 -1 155.82 -1 163H1ZM12 152H75V150H12V152Z" fill="#253F9A" mask="url(#path-1-inside-1)"/>
</svg>
