<svg width="201" height="65" viewBox="0 0 201 65" fill="none" xmlns="http://www.w3.org/2000/svg">
<mask id="path-1-inside-1" fill="white">
<path fill-rule="evenodd" clip-rule="evenodd" d="M12.2793 0C5.65188 0 0.279297 5.37258 0.279297 12V38C0.279297 44.6274 5.65189 50 12.2793 50H50.0667L45 64.25L63.5251 50H189C195.627 50 201 44.6274 201 38V12C201 5.37258 195.627 0 189 0H12.2793Z"/>
</mask>
<path fill-rule="evenodd" clip-rule="evenodd" d="M12.2793 0C5.65188 0 0.279297 5.37258 0.279297 12V38C0.279297 44.6274 5.65189 50 12.2793 50H50.0667L45 64.25L63.5251 50H189C195.627 50 201 44.6274 201 38V12C201 5.37258 195.627 0 189 0H12.2793Z" fill="#FFEAEA"/>
<path d="M50.0667 50L51.0089 50.335L51.4836 49H50.0667V50ZM45 64.25L44.0578 63.915L42.9217 67.1104L45.6097 65.0426L45 64.25ZM63.5251 50V49H63.185L62.9154 49.2074L63.5251 50ZM1.2793 12C1.2793 5.92487 6.20416 1 12.2793 1V-1C5.0996 -1 -0.720703 4.8203 -0.720703 12H1.2793ZM1.2793 38V12H-0.720703V38H1.2793ZM12.2793 49C6.20417 49 1.2793 44.0751 1.2793 38H-0.720703C-0.720703 45.1797 5.0996 51 12.2793 51V49ZM50.0667 49H12.2793V51H50.0667V49ZM49.1245 49.665L44.0578 63.915L45.9422 64.585L51.0089 50.335L49.1245 49.665ZM45.6097 65.0426L64.1348 50.7926L62.9154 49.2074L44.3903 63.4574L45.6097 65.0426ZM189 49H63.5251V51H189V49ZM200 38C200 44.0751 195.075 49 189 49V51C196.18 51 202 45.1797 202 38H200ZM200 12V38H202V12H200ZM189 1C195.075 1 200 5.92487 200 12H202C202 4.8203 196.18 -1 189 -1V1ZM12.2793 1H189V-1H12.2793V1Z" fill="#253F9A" mask="url(#path-1-inside-1)"/>
</svg>
