<svg width="297" height="64" viewBox="0 0 297 64" fill="none" xmlns="http://www.w3.org/2000/svg">
<mask id="path-1-inside-1" fill="white">
<path fill-rule="evenodd" clip-rule="evenodd" d="M12 0C5.37258 0 0 5.37258 0 12V48C0 54.6274 5.37259 60 12 60H265C271.627 60 277 54.6274 277 48V47.4879L296.5 63.5L277 26.4024V12C277 5.37258 271.627 0 265 0H12Z"/>
</mask>
<path fill-rule="evenodd" clip-rule="evenodd" d="M12 0C5.37258 0 0 5.37258 0 12V48C0 54.6274 5.37259 60 12 60H265C271.627 60 277 54.6274 277 48V47.4879L296.5 63.5L277 26.4024V12C277 5.37258 271.627 0 265 0H12Z" fill="#FFFEE1"/>
<path d="M277 47.4879L277.635 46.715L276 45.3728V47.4879H277ZM296.5 63.5L295.865 64.2728L299.684 67.4087L297.385 63.0347L296.5 63.5ZM277 26.4024H276V26.6493L276.115 26.8677L277 26.4024ZM1 12C1 5.92487 5.92487 1 12 1V-1C4.8203 -1 -1 4.8203 -1 12H1ZM1 48V12H-1V48H1ZM12 59C5.92487 59 1 54.0751 1 48H-1C-1 55.1797 4.8203 61 12 61V59ZM265 59H12V61H265V59ZM276 48C276 54.0751 271.075 59 265 59V61C272.18 61 278 55.1797 278 48H276ZM276 47.4879V48H278V47.4879H276ZM276.365 48.2607L295.865 64.2728L297.135 62.7272L277.635 46.715L276.365 48.2607ZM297.385 63.0347L277.885 25.9372L276.115 26.8677L295.615 63.9653L297.385 63.0347ZM276 12V26.4024H278V12H276ZM265 1C271.075 1 276 5.92487 276 12H278C278 4.8203 272.18 -1 265 -1V1ZM12 1H265V-1H12V1Z" fill="#253F9A" mask="url(#path-1-inside-1)"/>
</svg>
