<svg width="174" height="64" viewBox="0 0 174 64" fill="none" xmlns="http://www.w3.org/2000/svg">
<mask id="path-1-inside-1" fill="white">
<path fill-rule="evenodd" clip-rule="evenodd" d="M12.2793 0C5.65188 0 0.279297 5.37258 0.279297 12V52C0.279297 58.6274 5.65188 64 12.2793 64H146C152.627 64 158 58.6274 158 52L158 44.0001L174 22.5L158 27.8334L158 12C158 5.37258 152.627 0 146 0H12.2793Z"/>
</mask>
<path fill-rule="evenodd" clip-rule="evenodd" d="M12.2793 0C5.65188 0 0.279297 5.37258 0.279297 12V52C0.279297 58.6274 5.65188 64 12.2793 64H146C152.627 64 158 58.6274 158 52L158 44.0001L174 22.5L158 27.8334L158 12C158 5.37258 152.627 0 146 0H12.2793Z" fill="#EBEEFA"/>
<path d="M158 52H159V52L158 52ZM158 44.0001L157.198 43.4031L157 43.6689V44.0001L158 44.0001ZM174 22.5L174.802 23.097L176.701 20.5456L173.684 21.5514L174 22.5ZM158 27.8334L157 27.8334V29.2208L158.316 28.7821L158 27.8334ZM158 12L159 12V12H158ZM1.2793 12C1.2793 5.92487 6.20416 1 12.2793 1V-1C5.0996 -1 -0.720703 4.8203 -0.720703 12H1.2793ZM1.2793 52V12H-0.720703V52H1.2793ZM12.2793 63C6.20416 63 1.2793 58.0751 1.2793 52H-0.720703C-0.720703 59.1797 5.09959 65 12.2793 65V63ZM146 63H12.2793V65H146V63ZM157 52C157 58.0751 152.075 63 146 63V65C153.18 65 159 59.1797 159 52H157ZM157 44.0001L157 52L159 52L159 44.0001L157 44.0001ZM173.198 21.903L157.198 43.4031L158.802 44.5971L174.802 23.097L173.198 21.903ZM158.316 28.7821L174.316 23.4487L173.684 21.5514L157.684 26.8847L158.316 28.7821ZM157 12L157 27.8334L159 27.8334L159 12L157 12ZM146 1C152.075 1 157 5.92487 157 12H159C159 4.8203 153.18 -1 146 -1V1ZM12.2793 1H146V-1H12.2793V1Z" fill="#253F9A" mask="url(#path-1-inside-1)"/>
</svg>
