<svg width="185" height="126" viewBox="0 0 185 126" fill="none" xmlns="http://www.w3.org/2000/svg">
<mask id="path-1-inside-1" fill="white">
<path fill-rule="evenodd" clip-rule="evenodd" d="M12.2793 0C5.65188 0 0.279297 5.37258 0.279297 12V72C0.279297 78.6274 5.65188 84 12.2793 84H24.9561L50.5 126L38.8743 84H173C179.627 84 185 78.6274 185 72V12C185 5.37258 179.627 0 173 0H12.2793Z"/>
</mask>
<path fill-rule="evenodd" clip-rule="evenodd" d="M12.2793 0C5.65188 0 0.279297 5.37258 0.279297 12V72C0.279297 78.6274 5.65188 84 12.2793 84H24.9561L50.5 126L38.8743 84H173C179.627 84 185 78.6274 185 72V12C185 5.37258 179.627 0 173 0H12.2793Z" fill="#FFEAEA"/>
<path d="M24.9561 84L25.8105 83.4804L25.5184 83H24.9561V84ZM50.5 126L49.6456 126.52L53.3819 132.663L51.4638 125.733L50.5 126ZM38.8743 84V83H37.5599L37.9106 84.2668L38.8743 84ZM1.2793 12C1.2793 5.92487 6.20416 1 12.2793 1V-1C5.0996 -1 -0.720703 4.8203 -0.720703 12H1.2793ZM1.2793 72V12H-0.720703V72H1.2793ZM12.2793 83C6.20416 83 1.2793 78.0751 1.2793 72H-0.720703C-0.720703 79.1797 5.09959 85 12.2793 85V83ZM24.9561 83H12.2793V85H24.9561V83ZM51.3544 125.48L25.8105 83.4804L24.1017 84.5196L49.6456 126.52L51.3544 125.48ZM37.9106 84.2668L49.5362 126.267L51.4638 125.733L39.8381 83.7332L37.9106 84.2668ZM173 83H38.8743V85H173V83ZM184 72C184 78.0751 179.075 83 173 83V85C180.18 85 186 79.1797 186 72H184ZM184 12V72H186V12H184ZM173 1C179.075 1 184 5.92487 184 12H186C186 4.8203 180.18 -1 173 -1V1ZM12.2793 1H173V-1H12.2793V1Z" fill="#253F9A" mask="url(#path-1-inside-1)"/>
</svg>
