<svg width="133" height="40" viewBox="0 0 133 40" fill="none" xmlns="http://www.w3.org/2000/svg">
<mask id="path-1-inside-1" fill="white">
<path fill-rule="evenodd" clip-rule="evenodd" d="M12 0C5.37258 0 0 5.37258 0 12V28C0 34.6274 5.37259 40 12 40H108C114.627 40 120 34.6274 120 28V26.262L133 34.0001L119.839 10.0276C118.898 4.3386 113.956 0 108 0H12Z"/>
</mask>
<path fill-rule="evenodd" clip-rule="evenodd" d="M12 0C5.37258 0 0 5.37258 0 12V28C0 34.6274 5.37259 40 12 40H108C114.627 40 120 34.6274 120 28V26.262L133 34.0001L119.839 10.0276C118.898 4.3386 113.956 0 108 0H12Z" fill="#EBEEFA"/>
<path d="M120 26.262L120.511 25.4027L119 24.503V26.262H120ZM133 34.0001L132.489 34.8594L135.644 36.7374L133.877 33.5188L133 34.0001ZM119.839 10.0276L118.852 10.1908L118.88 10.3592L118.962 10.5089L119.839 10.0276ZM1 12C1 5.92487 5.92487 1 12 1V-1C4.8203 -1 -1 4.8203 -1 12H1ZM1 28V12H-1V28H1ZM12 39C5.92487 39 1 34.0751 1 28H-1C-1 35.1797 4.8203 41 12 41V39ZM108 39H12V41H108V39ZM119 28C119 34.0751 114.075 39 108 39V41C115.18 41 121 35.1797 121 28H119ZM119 26.262V28H121V26.262H119ZM119.489 27.1213L132.489 34.8594L133.511 33.1408L120.511 25.4027L119.489 27.1213ZM133.877 33.5188L120.715 9.54634L118.962 10.5089L132.123 34.4813L133.877 33.5188ZM108 1C113.458 1 117.99 4.97661 118.852 10.1908L120.825 9.86445C119.806 3.70059 114.453 -1 108 -1V1ZM12 1H108V-1H12V1Z" fill="#253F9A" mask="url(#path-1-inside-1)"/>
</svg>
