<svg width="150" height="42" viewBox="0 0 150 42" fill="none" xmlns="http://www.w3.org/2000/svg">
<mask id="path-1-inside-1" fill="white">
<path fill-rule="evenodd" clip-rule="evenodd" d="M28 0C21.3726 0 16 5.37258 16 12V13.5L0 40.5L16 29.5L16 30C16 36.6274 21.3726 42 28 42H138C144.627 42 150 36.6274 150 30V12C150 5.37258 144.627 0 138 0H28Z"/>
</mask>
<path fill-rule="evenodd" clip-rule="evenodd" d="M28 0C21.3726 0 16 5.37258 16 12V13.5L0 40.5L16 29.5L16 30C16 36.6274 21.3726 42 28 42H138C144.627 42 150 36.6274 150 30V12C150 5.37258 144.627 0 138 0H28Z" fill="#FFFEE1"/>
<path d="M16 13.5L16.8603 14.0098L17 13.774V13.5H16ZM0 40.5L-0.860292 39.9902L-3.17507 43.8964L0.566529 41.324L0 40.5ZM16 29.5L17 29.5L17 27.599L15.4335 28.676L16 29.5ZM16 30L15 30V30H16ZM17 12C17 5.92487 21.9249 1 28 1V-1C20.8203 -1 15 4.8203 15 12H17ZM17 13.5V12H15V13.5H17ZM0.860292 41.0098L16.8603 14.0098L15.1397 12.9902L-0.860292 39.9902L0.860292 41.0098ZM15.4335 28.676L-0.566529 39.676L0.566529 41.324L16.5665 30.324L15.4335 28.676ZM17 30L17 29.5L15 29.5L15 30L17 30ZM28 41C21.9249 41 17 36.0751 17 30H15C15 37.1797 20.8203 43 28 43V41ZM138 41H28V43H138V41ZM149 30C149 36.0751 144.075 41 138 41V43C145.18 43 151 37.1797 151 30H149ZM149 12V30H151V12H149ZM138 1C144.075 1 149 5.92487 149 12H151C151 4.8203 145.18 -1 138 -1V1ZM28 1H138V-1H28V1Z" fill="#253F9A" mask="url(#path-1-inside-1)"/>
</svg>
