<svg width="146" height="50" viewBox="0 0 146 50" fill="none" xmlns="http://www.w3.org/2000/svg">
<mask id="path-1-inside-1" fill="white">
<path fill-rule="evenodd" clip-rule="evenodd" d="M25.2793 0C18.6519 0 13.2793 5.37258 13.2793 12V13.6071L0.279297 41.0001L13.2793 32.3334V38C13.2793 44.6274 18.6519 50 25.2793 50H134C140.627 50 146 44.6274 146 38V12C146 5.37258 140.627 0 134 0H25.2793Z"/>
</mask>
<path fill-rule="evenodd" clip-rule="evenodd" d="M25.2793 0C18.6519 0 13.2793 5.37258 13.2793 12V13.6071L0.279297 41.0001L13.2793 32.3334V38C13.2793 44.6274 18.6519 50 25.2793 50H134C140.627 50 146 44.6274 146 38V12C146 5.37258 140.627 0 134 0H25.2793Z" fill="#EBEEFA"/>
<path d="M13.2793 13.6071L14.1827 14.0359L14.2793 13.8324V13.6071H13.2793ZM0.279297 41.0001L-0.624129 40.5713L-2.17422 43.8376L0.833997 41.8321L0.279297 41.0001ZM13.2793 32.3334H14.2793V30.4649L12.7246 31.5014L13.2793 32.3334ZM14.2793 12C14.2793 5.92487 19.2042 1 25.2793 1V-1C18.0996 -1 12.2793 4.8203 12.2793 12H14.2793ZM14.2793 13.6071V12H12.2793V13.6071H14.2793ZM1.18272 41.4288L14.1827 14.0359L12.3759 13.1784L-0.624129 40.5713L1.18272 41.4288ZM12.7246 31.5014L-0.275403 40.168L0.833997 41.8321L13.834 33.1655L12.7246 31.5014ZM14.2793 38V32.3334H12.2793V38H14.2793ZM25.2793 49C19.2042 49 14.2793 44.0751 14.2793 38H12.2793C12.2793 45.1797 18.0996 51 25.2793 51V49ZM134 49H25.2793V51H134V49ZM145 38C145 44.0751 140.075 49 134 49V51C141.18 51 147 45.1797 147 38H145ZM145 12V38H147V12H145ZM134 1C140.075 1 145 5.92487 145 12H147C147 4.8203 141.18 -1 134 -1V1ZM25.2793 1H134V-1H25.2793V1Z" fill="#253F9A" mask="url(#path-1-inside-1)"/>
</svg>
