<svg width="339" height="125" viewBox="0 0 339 125" fill="none" xmlns="http://www.w3.org/2000/svg">
<mask id="path-1-inside-1" fill="white">
<path fill-rule="evenodd" clip-rule="evenodd" d="M12.2793 0C5.65188 0 0.279297 5.37258 0.279297 12V99C0.279297 105.627 5.65187 111 12.2793 111H20.5292L50.0293 125L40.696 111H327C333.627 111 339 105.627 339 99V12C339 5.37258 333.627 0 327 0H12.2793Z"/>
</mask>
<path fill-rule="evenodd" clip-rule="evenodd" d="M12.2793 0C5.65188 0 0.279297 5.37258 0.279297 12V99C0.279297 105.627 5.65187 111 12.2793 111H20.5292L50.0293 125L40.696 111H327C333.627 111 339 105.627 339 99V12C339 5.37258 333.627 0 327 0H12.2793Z" fill="#FFEAEA"/>
<path d="M20.5292 111L20.9579 110.097L20.7545 110H20.5292V111ZM50.0293 125L49.6005 125.903L52.8668 127.454L50.8613 124.445L50.0293 125ZM40.696 111V110H38.8274L39.8639 111.555L40.696 111ZM1.2793 12C1.2793 5.92487 6.20416 1 12.2793 1V-1C5.0996 -1 -0.720703 4.8203 -0.720703 12H1.2793ZM1.2793 99V12H-0.720703V99H1.2793ZM12.2793 110C6.20416 110 1.2793 105.075 1.2793 99H-0.720703C-0.720703 106.18 5.09959 112 12.2793 112V110ZM20.5292 110H12.2793V112H20.5292V110ZM50.458 124.097L20.9579 110.097L20.1005 111.903L49.6005 125.903L50.458 124.097ZM39.8639 111.555L49.1972 125.555L50.8613 124.445L41.528 110.445L39.8639 111.555ZM327 110H40.696V112H327V110ZM338 99C338 105.075 333.075 110 327 110V112C334.18 112 340 106.18 340 99H338ZM338 12V99H340V12H338ZM327 1C333.075 1 338 5.92487 338 12H340C340 4.8203 334.18 -1 327 -1V1ZM12.2793 1H327V-1H12.2793V1Z" fill="#253F9A" mask="url(#path-1-inside-1)"/>
</svg>
