<svg width="311" height="63" viewBox="0 0 311 63" fill="none" xmlns="http://www.w3.org/2000/svg">
<mask id="path-1-inside-1" fill="white">
<path fill-rule="evenodd" clip-rule="evenodd" d="M12 0C5.37258 0 0 5.37258 0 12V51C0 57.6274 5.37258 63 12 63H279C285.627 63 291 57.6274 291 51V32.254L311 44L291 13.0476V12C291 5.37258 285.627 0 279 0H12Z"/>
</mask>
<path fill-rule="evenodd" clip-rule="evenodd" d="M12 0C5.37258 0 0 5.37258 0 12V51C0 57.6274 5.37258 63 12 63H279C285.627 63 291 57.6274 291 51V32.254L311 44L291 13.0476V12C291 5.37258 285.627 0 279 0H12Z" fill="#FFFEE1"/>
<path d="M291 32.254L291.506 31.3918L290 30.507V32.254H291ZM311 44L310.494 44.8623L314.126 46.9958L311.84 43.4573L311 44ZM291 13.0476H290V13.3426L290.16 13.5903L291 13.0476ZM1 12C1 5.92487 5.92487 1 12 1V-1C4.8203 -1 -1 4.8203 -1 12H1ZM1 51V12H-1V51H1ZM12 62C5.92487 62 1 57.0751 1 51H-1C-1 58.1797 4.8203 64 12 64V62ZM279 62H12V64H279V62ZM290 51C290 57.0751 285.075 62 279 62V64C286.18 64 292 58.1797 292 51H290ZM290 32.254V51H292V32.254H290ZM290.494 33.1163L310.494 44.8623L311.506 43.1377L291.506 31.3918L290.494 33.1163ZM311.84 43.4573L291.84 12.5049L290.16 13.5903L310.16 44.5427L311.84 43.4573ZM290 12V13.0476H292V12H290ZM279 1C285.075 1 290 5.92487 290 12H292C292 4.8203 286.18 -1 279 -1V1ZM12 1H279V-1H12V1Z" fill="#253F9A" mask="url(#path-1-inside-1)"/>
</svg>
