<svg width="206" height="116" viewBox="0 0 206 116" fill="none" xmlns="http://www.w3.org/2000/svg">
<mask id="path-1-inside-1" fill="white">
<path fill-rule="evenodd" clip-rule="evenodd" d="M12 0C5.37258 0 0 5.37258 0 12V56C0 62.6274 5.37259 68 12 68H154C160.627 68 166 62.6274 166 56V33.7491L205.5 116L166 14.0802V12C166 5.37258 160.627 0 154 0H12Z"/>
</mask>
<path fill-rule="evenodd" clip-rule="evenodd" d="M12 0C5.37258 0 0 5.37258 0 12V56C0 62.6274 5.37259 68 12 68H154C160.627 68 166 62.6274 166 56V33.7491L205.5 116L166 14.0802V12C166 5.37258 160.627 0 154 0H12Z" fill="#FFFEE1"/>
<path d="M166 33.7491L166.901 33.3162L165 29.3568V33.7491H166ZM205.5 116L204.599 116.433L206.432 115.639L205.5 116ZM166 14.0802H165V14.2673L165.068 14.4416L166 14.0802ZM1 12C1 5.92487 5.92487 1 12 1V-1C4.8203 -1 -1 4.8203 -1 12H1ZM1 56V12H-1V56H1ZM12 67C5.92487 67 1 62.0751 1 56H-1C-1 63.1797 4.8203 69 12 69V67ZM154 67H12V69H154V67ZM165 56C165 62.0751 160.075 67 154 67V69C161.18 69 167 63.1797 167 56H165ZM165 33.7491V56H167V33.7491H165ZM165.099 34.182L204.599 116.433L206.401 115.567L166.901 33.3162L165.099 34.182ZM206.432 115.639L166.932 13.7189L165.068 14.4416L204.568 116.361L206.432 115.639ZM165 12V14.0802H167V12H165ZM154 1C160.075 1 165 5.92487 165 12H167C167 4.8203 161.18 -1 154 -1V1ZM12 1H154V-1H12V1Z" fill="#253F9A" mask="url(#path-1-inside-1)"/>
</svg>
