<svg width="172" height="75" viewBox="0 0 172 75" fill="none" xmlns="http://www.w3.org/2000/svg">
<mask id="path-1-inside-1" fill="white">
<path fill-rule="evenodd" clip-rule="evenodd" d="M12 0C5.37258 0 0 5.37258 0 12V49C0 55.6274 5.37258 61 12 61H137.333L129 75L154.5 61H160C166.627 61 172 55.6274 172 49V12C172 5.37258 166.627 0 160 0H12Z"/>
</mask>
<path fill-rule="evenodd" clip-rule="evenodd" d="M12 0C5.37258 0 0 5.37258 0 12V49C0 55.6274 5.37258 61 12 61H137.333L129 75L154.5 61H160C166.627 61 172 55.6274 172 49V12C172 5.37258 166.627 0 160 0H12Z" fill="#EBEEFA"/>
<path d="M137.333 61L138.193 61.5115L139.092 60H137.333V61ZM129 75L128.141 74.4885L126.263 77.6437L129.481 75.8766L129 75ZM154.5 61V60H154.244L154.019 60.1234L154.5 61ZM1 12C1 5.92487 5.92487 1 12 1V-1C4.8203 -1 -1 4.8203 -1 12H1ZM1 49V12H-1V49H1ZM12 60C5.92486 60 1 55.0751 1 49H-1C-1 56.1797 4.82029 62 12 62V60ZM137.333 60H12V62H137.333V60ZM136.474 60.4885L128.141 74.4885L129.859 75.5115L138.193 61.5115L136.474 60.4885ZM129.481 75.8766L154.981 61.8766L154.019 60.1234L128.519 74.1234L129.481 75.8766ZM160 60H154.5V62H160V60ZM171 49C171 55.0751 166.075 60 160 60V62C167.18 62 173 56.1797 173 49H171ZM171 12V49H173V12H171ZM160 1C166.075 1 171 5.92487 171 12H173C173 4.8203 167.18 -1 160 -1V1ZM12 1H160V-1H12V1Z" fill="#253F9A" mask="url(#path-1-inside-1)"/>
</svg>
