<svg width="277" height="104" viewBox="0 0 277 104" fill="none" xmlns="http://www.w3.org/2000/svg">
<mask id="path-1-inside-1" fill="white">
<path fill-rule="evenodd" clip-rule="evenodd" d="M12.2793 0C5.65188 0 0.279297 5.37258 0.279297 12V78C0.279297 84.6274 5.65188 90 12.2793 90H60.8625L51.5292 104L81.0293 90H265C271.627 90 277 84.6274 277 78V12C277 5.37258 271.627 0 265 0H12.2793Z"/>
</mask>
<path fill-rule="evenodd" clip-rule="evenodd" d="M12.2793 0C5.65188 0 0.279297 5.37258 0.279297 12V78C0.279297 84.6274 5.65188 90 12.2793 90H60.8625L51.5292 104L81.0293 90H265C271.627 90 277 84.6274 277 78V12C277 5.37258 271.627 0 265 0H12.2793Z" fill="#FFEAEA"/>
<path d="M60.8625 90L61.6946 90.5547L62.7311 89H60.8625V90ZM51.5292 104L50.6972 103.445L48.6917 106.454L51.958 104.903L51.5292 104ZM81.0293 90V89H80.804L80.6006 89.0966L81.0293 90ZM1.2793 12C1.2793 5.92487 6.20416 1 12.2793 1V-1C5.0996 -1 -0.720703 4.8203 -0.720703 12H1.2793ZM1.2793 78V12H-0.720703V78H1.2793ZM12.2793 89C6.20416 89 1.2793 84.0751 1.2793 78H-0.720703C-0.720703 85.1797 5.09959 91 12.2793 91V89ZM60.8625 89H12.2793V91H60.8625V89ZM60.0305 89.4453L50.6972 103.445L52.3613 104.555L61.6946 90.5547L60.0305 89.4453ZM51.958 104.903L81.458 90.9034L80.6006 89.0966L51.1005 103.097L51.958 104.903ZM265 89H81.0293V91H265V89ZM276 78C276 84.0751 271.075 89 265 89V91C272.18 91 278 85.1797 278 78H276ZM276 12V78H278V12H276ZM265 1C271.075 1 276 5.92487 276 12H278C278 4.8203 272.18 -1 265 -1V1ZM12.2793 1H265V-1H12.2793V1Z" fill="#253F9A" mask="url(#path-1-inside-1)"/>
</svg>
