<svg width="326" height="64" viewBox="0 0 326 64" fill="none" xmlns="http://www.w3.org/2000/svg">
<mask id="path-1-inside-1" fill="white">
<path fill-rule="evenodd" clip-rule="evenodd" d="M25.2793 0C18.6519 0 13.2793 5.37258 13.2793 12V13.6071L0.279297 41.0001L13.2793 32.3334V52C13.2793 58.6274 18.6519 64 25.2793 64H314C320.627 64 326 58.6274 326 52V12C326 5.37258 320.627 0 314 0H25.2793Z"/>
</mask>
<path fill-rule="evenodd" clip-rule="evenodd" d="M25.2793 0C18.6519 0 13.2793 5.37258 13.2793 12V13.6071L0.279297 41.0001L13.2793 32.3334V52C13.2793 58.6274 18.6519 64 25.2793 64H314C320.627 64 326 58.6274 326 52V12C326 5.37258 320.627 0 314 0H25.2793Z" fill="#FFFEE1"/>
<path d="M13.2793 13.6071L14.1827 14.0359L14.2793 13.8324V13.6071H13.2793ZM0.279297 41.0001L-0.624129 40.5713L-2.17422 43.8376L0.833997 41.8321L0.279297 41.0001ZM13.2793 32.3334H14.2793V30.4649L12.7246 31.5014L13.2793 32.3334ZM14.2793 12C14.2793 5.92487 19.2042 1 25.2793 1V-1C18.0996 -1 12.2793 4.8203 12.2793 12H14.2793ZM14.2793 13.6071V12H12.2793V13.6071H14.2793ZM1.18272 41.4288L14.1827 14.0359L12.3759 13.1784L-0.624129 40.5713L1.18272 41.4288ZM12.7246 31.5014L-0.275403 40.168L0.833997 41.8321L13.834 33.1655L12.7246 31.5014ZM14.2793 52V32.3334H12.2793V52H14.2793ZM25.2793 63C19.2042 63 14.2793 58.0751 14.2793 52H12.2793C12.2793 59.1797 18.0996 65 25.2793 65V63ZM314 63H25.2793V65H314V63ZM325 52C325 58.0751 320.075 63 314 63V65C321.18 65 327 59.1797 327 52H325ZM325 12V52H327V12H325ZM314 1C320.075 1 325 5.92487 325 12H327C327 4.8203 321.18 -1 314 -1V1ZM25.2793 1H314V-1H25.2793V1Z" fill="#253F9A" mask="url(#path-1-inside-1)"/>
</svg>
