<svg width="292" height="115" viewBox="0 0 292 115" fill="none" xmlns="http://www.w3.org/2000/svg">
<mask id="path-1-inside-1" fill="white">
<path fill-rule="evenodd" clip-rule="evenodd" d="M263.893 66.3907L292 0L264 98.9655V103C264 109.627 258.627 115 252 115H12C5.37259 115 0 109.627 0 103V68C0 61.3726 5.37258 56 12 56H252C258.082 56 263.107 60.5242 263.893 66.3907Z"/>
</mask>
<path fill-rule="evenodd" clip-rule="evenodd" d="M263.893 66.3907L292 0L264 98.9655V103C264 109.627 258.627 115 252 115H12C5.37259 115 0 109.627 0 103V68C0 61.3726 5.37258 56 12 56H252C258.082 56 263.107 60.5242 263.893 66.3907Z" fill="#FFFEE1"/>
<path d="M292 0L292.962 0.27224L291.079 -0.389859L292 0ZM263.893 66.3907L262.902 66.5235L263.388 70.149L264.814 66.7805L263.893 66.3907ZM264 98.9655L263.038 98.6933L263 98.8268V98.9655H264ZM291.079 -0.389859L262.972 66.0008L264.814 66.7805L292.921 0.389859L291.079 -0.389859ZM264.962 99.2378L292.962 0.27224L291.038 -0.27224L263.038 98.6933L264.962 99.2378ZM263 98.9655V103H265V98.9655H263ZM263 103C263 109.075 258.075 114 252 114V116C259.18 116 265 110.18 265 103H263ZM252 114H12V116H252V114ZM12 114C5.92487 114 1 109.075 1 103H-1C-1 110.18 4.8203 116 12 116V114ZM1 103V68H-1V103H1ZM1 68C1 61.9249 5.92487 57 12 57V55C4.8203 55 -1 60.8203 -1 68H1ZM12 57H252V55H12V57ZM252 57C257.574 57 262.181 61.1469 262.902 66.5235L264.884 66.2578C264.032 59.9015 258.589 55 252 55V57Z" fill="#253F9A" mask="url(#path-1-inside-1)"/>
</svg>
