<svg width="205" height="136" viewBox="0 0 205 136" fill="none" xmlns="http://www.w3.org/2000/svg">
<mask id="path-1-inside-1" fill="white">
<path fill-rule="evenodd" clip-rule="evenodd" d="M54.0207 28L49 0L66.3793 28H193C199.627 28 205 33.3726 205 40V124C205 130.627 199.627 136 193 136H12C5.37258 136 0 130.627 0 124V40C0 33.3726 5.37258 28 12 28H54.0207Z"/>
</mask>
<path fill-rule="evenodd" clip-rule="evenodd" d="M54.0207 28L49 0L66.3793 28H193C199.627 28 205 33.3726 205 40V124C205 130.627 199.627 136 193 136H12C5.37258 136 0 130.627 0 124V40C0 33.3726 5.37258 28 12 28H54.0207Z" fill="#FFFEE1"/>
<path d="M49 0L49.8496 -0.527363L47.0932 -4.96833L48.0157 0.176495L49 0ZM54.0207 28V29H55.216L55.005 27.8235L54.0207 28ZM66.3793 28L65.5297 28.5274L65.823 29H66.3793V28ZM48.0157 0.176495L53.0364 28.1765L55.005 27.8235L49.9843 -0.176495L48.0157 0.176495ZM67.229 27.4726L49.8496 -0.527363L48.1504 0.527363L65.5297 28.5274L67.229 27.4726ZM66.3793 29H193V27H66.3793V29ZM193 29C199.075 29 204 33.9249 204 40H206C206 32.8203 200.18 27 193 27V29ZM204 40V124H206V40H204ZM204 124C204 130.075 199.075 135 193 135V137C200.18 137 206 131.18 206 124H204ZM193 135H12V137H193V135ZM12 135C5.92487 135 1 130.075 1 124H-1C-1 131.18 4.8203 137 12 137V135ZM1 124V40H-1V124H1ZM1 40C1 33.9249 5.92487 29 12 29V27C4.8203 27 -1 32.8203 -1 40H1ZM12 29H54.0207V27H12V29Z" fill="#253F9A" mask="url(#path-1-inside-1)"/>
</svg>
