<svg width="335" height="131" viewBox="0 0 335 131" fill="none" xmlns="http://www.w3.org/2000/svg">
<mask id="path-1-inside-1" fill="white">
<path fill-rule="evenodd" clip-rule="evenodd" d="M33.3659 40L0 0L52.6829 40H323C329.627 40 335 45.3726 335 52V119C335 125.627 329.627 131 323 131H12C5.37259 131 0 125.627 0 119V52C0 45.3726 5.37258 40 12 40H33.3659Z"/>
</mask>
<path fill-rule="evenodd" clip-rule="evenodd" d="M33.3659 40L0 0L52.6829 40H323C329.627 40 335 45.3726 335 52V119C335 125.627 329.627 131 323 131H12C5.37259 131 0 125.627 0 119V52C0 45.3726 5.37258 40 12 40H33.3659Z" fill="#FFFEE1"/>
<path d="M0 0L0.604709 -0.796446L-6.4079 -6.12084L-0.767914 0.640553L0 0ZM33.3659 40V41H35.5022L34.1338 39.3594L33.3659 40ZM52.6829 40L52.0782 40.7964L52.3463 41H52.6829V40ZM-0.767914 0.640553L32.5979 40.6406L34.1338 39.3594L0.767914 -0.640553L-0.767914 0.640553ZM53.2876 39.2036L0.604709 -0.796446L-0.604709 0.796446L52.0782 40.7964L53.2876 39.2036ZM52.6829 41H323V39H52.6829V41ZM323 41C329.075 41 334 45.9249 334 52H336C336 44.8203 330.18 39 323 39V41ZM334 52V119H336V52H334ZM334 119C334 125.075 329.075 130 323 130V132C330.18 132 336 126.18 336 119H334ZM323 130H12V132H323V130ZM12 130C5.92487 130 1 125.075 1 119H-1C-1 126.18 4.8203 132 12 132V130ZM1 119V52H-1V119H1ZM1 52C1 45.9249 5.92487 41 12 41V39C4.8203 39 -1 44.8203 -1 52H1ZM12 41H33.3659V39H12V41Z" fill="#253F9A" mask="url(#path-1-inside-1)"/>
</svg>
