<svg width="149" height="97" viewBox="0 0 149 97" fill="none" xmlns="http://www.w3.org/2000/svg">
<mask id="path-1-inside-1" fill="white">
<path fill-rule="evenodd" clip-rule="evenodd" d="M133.729 43.4507L149 0.5L134 75.5V85C134 91.6274 128.627 97 122 97H12C5.37258 97 0 91.6274 0 85V46C0 39.3726 5.37258 34 12 34H122C127.753 34 132.56 38.0479 133.729 43.4507Z"/>
</mask>
<path fill-rule="evenodd" clip-rule="evenodd" d="M133.729 43.4507L149 0.5L134 75.5V85C134 91.6274 128.627 97 122 97H12C5.37258 97 0 91.6274 0 85V46C0 39.3726 5.37258 34 12 34H122C127.753 34 132.56 38.0479 133.729 43.4507Z" fill="#FFFEE1"/>
<path d="M149 0.5L149.981 0.696116L148.058 0.16499L149 0.5ZM133.729 43.4507L132.751 43.6621L133.494 47.0955L134.671 43.7857L133.729 43.4507ZM134 75.5L133.019 75.3039L133 75.401V75.5H134ZM148.058 0.16499L132.786 43.1157L134.671 43.7857L149.942 0.83501L148.058 0.16499ZM134.981 75.6961L149.981 0.696116L148.019 0.303884L133.019 75.3039L134.981 75.6961ZM133 75.5V85H135V75.5H133ZM133 85C133 91.0751 128.075 96 122 96V98C129.18 98 135 92.1797 135 85H133ZM122 96H12V98H122V96ZM12 96C5.92487 96 1 91.0751 1 85H-1C-1 92.1797 4.8203 98 12 98V96ZM1 85V46H-1V85H1ZM1 46C1 39.9249 5.92487 35 12 35V33C4.8203 33 -1 38.8203 -1 46H1ZM12 35H122V33H12V35ZM122 35C127.272 35 131.68 38.7098 132.751 43.6621L134.706 43.2392C133.44 37.3859 128.233 33 122 33V35Z" fill="#253F9A" mask="url(#path-1-inside-1)"/>
</svg>
