<svg width="275" height="128" viewBox="0 0 275 128" fill="none" xmlns="http://www.w3.org/2000/svg">
<mask id="path-1-inside-1" fill="white">
<path fill-rule="evenodd" clip-rule="evenodd" d="M12.2793 0C5.65188 0 0.279297 5.37258 0.279297 12V74C0.279297 80.6274 5.65188 86 12.2793 86H114.956L140.5 128L128.874 86H263C269.627 86 275 80.6274 275 74V12C275 5.37258 269.627 0 263 0H12.2793Z"/>
</mask>
<path fill-rule="evenodd" clip-rule="evenodd" d="M12.2793 0C5.65188 0 0.279297 5.37258 0.279297 12V74C0.279297 80.6274 5.65188 86 12.2793 86H114.956L140.5 128L128.874 86H263C269.627 86 275 80.6274 275 74V12C275 5.37258 269.627 0 263 0H12.2793Z" fill="#FFEAEA"/>
<path d="M114.956 86L115.811 85.4804L115.518 85H114.956V86ZM140.5 128L139.646 128.52L143.382 134.663L141.464 127.733L140.5 128ZM128.874 86V85H127.56L127.911 86.2668L128.874 86ZM1.2793 12C1.2793 5.92487 6.20416 1 12.2793 1V-1C5.09959 -1 -0.720703 4.8203 -0.720703 12H1.2793ZM1.2793 74V12H-0.720703V74H1.2793ZM12.2793 85C6.20417 85 1.2793 80.0751 1.2793 74H-0.720703C-0.720703 81.1797 5.0996 87 12.2793 87V85ZM114.956 85H12.2793V87H114.956V85ZM141.354 127.48L115.811 85.4804L114.102 86.5196L139.646 128.52L141.354 127.48ZM127.911 86.2668L139.536 128.267L141.464 127.733L129.838 85.7332L127.911 86.2668ZM263 85H128.874V87H263V85ZM274 74C274 80.0751 269.075 85 263 85V87C270.18 87 276 81.1797 276 74H274ZM274 12V74H276V12H274ZM263 1C269.075 1 274 5.92487 274 12H276C276 4.8203 270.18 -1 263 -1V1ZM12.2793 1H263V-1H12.2793V1Z" fill="#253F9A" mask="url(#path-1-inside-1)"/>
</svg>
