<svg width="176" height="188" viewBox="0 0 176 188" fill="none" xmlns="http://www.w3.org/2000/svg">
<mask id="path-1-inside-1" fill="white">
<path fill-rule="evenodd" clip-rule="evenodd" d="M149.554 128.749L175.5 0L150 160.217V176C150 182.627 144.627 188 138 188H12C5.37258 188 0 182.627 0 176V132C0 125.373 5.37258 120 12 120H138C143.501 120 148.137 123.701 149.554 128.749Z"/>
</mask>
<path fill-rule="evenodd" clip-rule="evenodd" d="M149.554 128.749L175.5 0L150 160.217V176C150 182.627 144.627 188 138 188H12C5.37258 188 0 182.627 0 176V132C0 125.373 5.37258 120 12 120H138C143.501 120 148.137 123.701 149.554 128.749Z" fill="#FFFEE1"/>
<path d="M175.5 0L176.488 0.157181L174.52 -0.19755L175.5 0ZM149.554 128.749L148.592 129.019L149.714 133.017L150.535 128.947L149.554 128.749ZM150 160.217L149.012 160.06L149 160.138V160.217H150ZM174.52 -0.19755L148.574 128.551L150.535 128.947L176.48 0.19755L174.52 -0.19755ZM150.988 160.374L176.488 0.157181L174.512 -0.157181L149.012 160.06L150.988 160.374ZM149 160.217V176H151V160.217H149ZM149 176C149 182.075 144.075 187 138 187V189C145.18 189 151 183.18 151 176H149ZM138 187H12V189H138V187ZM12 187C5.92487 187 1 182.075 1 176H-1C-1 183.18 4.8203 189 12 189V187ZM1 176V132H-1V176H1ZM1 132C1 125.925 5.92487 121 12 121V119C4.8203 119 -1 124.82 -1 132H1ZM12 121H138V119H12V121ZM138 121C143.041 121 147.292 124.392 148.592 129.019L150.517 128.479C148.982 123.011 143.961 119 138 119V121Z" fill="#253F9A" mask="url(#path-1-inside-1)"/>
</svg>
