<svg width="207" height="64" viewBox="0 0 207 64" fill="none" xmlns="http://www.w3.org/2000/svg">
<mask id="path-1-inside-1" fill="white">
<path fill-rule="evenodd" clip-rule="evenodd" d="M25.2793 0C18.6519 0 13.2793 5.37258 13.2793 12V13.6071L0.279297 41.0001L13.2793 32.3334V52C13.2793 58.6274 18.6519 64 25.2793 64H195C201.627 64 207 58.6274 207 52V12C207 5.37258 201.627 0 195 0H25.2793Z"/>
</mask>
<path fill-rule="evenodd" clip-rule="evenodd" d="M25.2793 0C18.6519 0 13.2793 5.37258 13.2793 12V13.6071L0.279297 41.0001L13.2793 32.3334V52C13.2793 58.6274 18.6519 64 25.2793 64H195C201.627 64 207 58.6274 207 52V12C207 5.37258 201.627 0 195 0H25.2793Z" fill="#FFFEE1"/>
<path d="M13.2793 13.6071L14.1827 14.0359L14.2793 13.8324V13.6071H13.2793ZM0.279297 41.0001L-0.624129 40.5713L-2.17422 43.8376L0.833997 41.8321L0.279297 41.0001ZM13.2793 32.3334H14.2793V30.4649L12.7246 31.5014L13.2793 32.3334ZM14.2793 12C14.2793 5.92487 19.2042 1 25.2793 1V-1C18.0996 -1 12.2793 4.8203 12.2793 12H14.2793ZM14.2793 13.6071V12H12.2793V13.6071H14.2793ZM1.18272 41.4288L14.1827 14.0359L12.3759 13.1784L-0.624129 40.5713L1.18272 41.4288ZM12.7246 31.5014L-0.275403 40.168L0.833997 41.8321L13.834 33.1655L12.7246 31.5014ZM14.2793 52V32.3334H12.2793V52H14.2793ZM25.2793 63C19.2042 63 14.2793 58.0751 14.2793 52H12.2793C12.2793 59.1797 18.0996 65 25.2793 65V63ZM195 63H25.2793V65H195V63ZM206 52C206 58.0751 201.075 63 195 63V65C202.18 65 208 59.1797 208 52H206ZM206 12V52H208V12H206ZM195 1C201.075 1 206 5.92487 206 12H208C208 4.8203 202.18 -1 195 -1V1ZM25.2793 1H195V-1H25.2793V1Z" fill="#253F9A" mask="url(#path-1-inside-1)"/>
</svg>
