<svg width="207" height="66" viewBox="0 0 207 66" fill="none" xmlns="http://www.w3.org/2000/svg">
<mask id="path-1-inside-1" fill="white">
<path fill-rule="evenodd" clip-rule="evenodd" d="M12 0C5.37258 0 0 5.37258 0 12V50C0 56.6274 5.37259 62 12 62H175C181.627 62 187 56.6274 187 50V49.4879L206.5 65.5L187 28.4024V12C187 5.37258 181.627 0 175 0H12Z"/>
</mask>
<path fill-rule="evenodd" clip-rule="evenodd" d="M12 0C5.37258 0 0 5.37258 0 12V50C0 56.6274 5.37259 62 12 62H175C181.627 62 187 56.6274 187 50V49.4879L206.5 65.5L187 28.4024V12C187 5.37258 181.627 0 175 0H12Z" fill="#FFFEE1"/>
<path d="M187 49.4879L187.635 48.715L186 47.3728V49.4879H187ZM206.5 65.5L205.865 66.2728L209.684 69.4087L207.385 65.0347L206.5 65.5ZM187 28.4024H186V28.6493L186.115 28.8677L187 28.4024ZM1 12C1 5.92487 5.92487 1 12 1V-1C4.8203 -1 -1 4.8203 -1 12H1ZM1 50V12H-1V50H1ZM12 61C5.92487 61 1 56.0751 1 50H-1C-1 57.1797 4.8203 63 12 63V61ZM175 61H12V63H175V61ZM186 50C186 56.0751 181.075 61 175 61V63C182.18 63 188 57.1797 188 50H186ZM186 49.4879V50H188V49.4879H186ZM186.365 50.2607L205.865 66.2728L207.135 64.7272L187.635 48.715L186.365 50.2607ZM207.385 65.0347L187.885 27.9372L186.115 28.8677L205.615 65.9653L207.385 65.0347ZM186 12V28.4024H188V12H186ZM175 1C181.075 1 186 5.92487 186 12H188C188 4.8203 182.18 -1 175 -1V1ZM12 1H175V-1H12V1Z" fill="#253F9A" mask="url(#path-1-inside-1)"/>
</svg>
