<svg width="81" height="55" viewBox="0 0 81 55" fill="none" xmlns="http://www.w3.org/2000/svg">
<g clip-path="url(#clip0)">
<path d="M41.3879 13.7378C47.1754 12.3323 53.1497 11.7213 59.1014 12.1048C65.6295 12.5253 73.056 14.1009 77.6252 19.2111C83.0085 25.0949 81.6202 33.1546 75.6287 38.1442C76.0919 38.0633 78.0287 37.6856 78.9262 37.6819C79.106 37.6804 79.3487 37.7438 78.8867 38.4771C77.1848 41.1777 75.0202 43.2311 72.6421 45.2622C72.8099 48.0396 72.7565 51.4604 72.2303 54.3904C72.1454 54.8637 71.8109 54.8001 71.6037 54.6384C69.8066 53.2358 67.8869 51.3079 66.5129 49.6408C62.6759 51.7447 59.0396 53.2438 55.0434 54.5489C53.8701 54.9159 54.2946 54.333 54.6586 53.8032C56.7122 50.8275 58.5371 47.8678 60.3743 44.7518C59.6626 44.3131 58.8074 43.8099 58.2247 43.335C52.8803 47.4736 46.5987 50.4067 40.1642 52.3603C31.257 55.0647 22.5545 55.6245 15.6865 54.3445C8.20704 52.9502 2.73496 49.3414 1.04447 43.8492C-1.1309 36.7828 3.75851 30.0081 8.79051 25.6008C9.48202 23.4528 11.3208 19.2636 12.3603 17.0919C8.70152 14.7299 3.64558 11.8371 1.2468 10.2232C-0.747915 8.87064 -0.273889 8.68217 2.31924 8.32829C7.32322 7.81659 12.1944 7.81433 17.0014 8.16183C18.4464 5.63011 20.0904 3.06938 21.7202 0.64814C22.1651 0.00991112 22.3566 -0.406728 22.9235 0.625919C24.6591 3.58272 26.4486 6.55577 27.9054 9.66585C32.5659 10.6185 36.9396 12.1124 41.3879 13.7378Z" fill="white"/>
<path d="M67.0695 36.2048C66.4447 37.7901 65.8817 39.476 65.3136 41.008C63.5371 41.1135 61.7724 41.153 60.2396 41.1837C60.1289 41.1863 60.0708 41.2763 60.2073 41.3717C61.4199 42.1492 62.5453 42.7593 64.0443 43.8349C63.1277 45.6959 62.0346 47.3581 60.9673 49.1294C60.8178 49.3607 60.7873 49.5292 61.1617 49.3549C63.1558 48.4428 65.2227 47.2073 66.8878 46.0864C67.9116 46.9851 68.8527 48.0258 69.7394 49.1451C69.7578 49.1679 69.7999 49.1839 69.8055 49.1362C69.9984 47.4343 69.9249 45.5686 69.7332 44.0261C71.1625 42.9027 72.542 41.7141 73.7779 40.3648C73.8792 40.2564 73.7781 40.2263 73.7108 40.2354C72.2468 40.4144 70.5006 40.6275 69.0661 40.7382C68.5519 39.0276 68.0794 37.6393 67.4476 36.192C67.377 36.042 67.3199 35.9667 67.2624 35.9667C67.2035 35.9671 67.144 36.0457 67.0695 36.2048ZM55.5973 14.792C53.1181 14.792 50.7059 14.9618 48.5088 15.2445C42.9479 15.9923 37.3992 17.4634 32.4056 19.7851C32.1153 19.9277 32.2448 20.1207 32.4809 20.0777C56.4977 15.8537 77.3164 20.1507 70.0516 38.2841C69.9585 38.4522 70.1111 38.4489 70.1727 38.4114C81.7134 32.4991 80.6328 20.5243 67.9844 16.4995C64.1255 15.2714 59.767 14.7918 55.6 14.7918C55.5984 14.792 55.5981 14.792 55.5973 14.792Z" fill="url(#paint0_linear)"/>
<path d="M33.6243 34.8271C33.4275 33.7341 32.7204 29.9628 34.2229 29.8204C35.826 29.6698 36.3481 33.6866 36.5096 34.6643C36.6571 35.5585 37.2872 39.5373 35.9349 39.7673C35.8911 39.7745 35.8481 39.7784 35.8058 39.7784C34.3976 39.7778 33.7988 35.797 33.6243 34.8271ZM33.8712 26.4392C33.8207 26.4392 33.7691 26.4398 33.718 26.4408C28.8562 26.6342 28.3586 31.9104 28.9871 35.5873C29.6195 39.3552 31.9231 44.375 36.6108 43.4495C40.7339 42.6354 41.3231 38.0217 40.7983 34.5244C40.2113 30.6016 38.2489 26.4396 33.8722 26.4392C33.8716 26.4392 33.8718 26.4392 33.8712 26.4392ZM21.4418 43.9086C24.3897 44.1172 27.342 44.1285 30.2938 43.9966C30.053 42.5794 29.8091 41.1629 29.5596 39.7469C28.3414 39.8031 27.1227 39.8214 25.9036 39.8123C25.1024 35.4277 24.3584 31.0327 23.5775 26.6445C21.8057 26.5482 20.0363 26.4266 18.2678 26.2851C19.285 32.167 20.3742 38.0359 21.4418 43.9086ZM39.4967 26.2515C39.7146 27.5481 39.9282 28.8454 40.136 30.1439C40.7785 30.0513 41.4204 29.956 42.0622 29.8618C42.6764 33.6817 43.3092 37.4987 43.969 41.3108C45.2008 40.9343 46.4328 40.5573 47.6591 40.1627C47.0494 36.5128 46.4471 32.862 45.8438 29.211C46.4295 29.098 47.0147 28.9822 47.5979 28.8549L47.0054 25.267C44.5099 25.6495 42.0068 25.9773 39.4967 26.2515ZM47.4782 25.2102L48.0715 28.7876C48.635 28.6658 49.198 28.5407 49.7608 28.4146C50.3361 31.8907 50.8993 35.3682 51.5002 38.8396C52.6056 38.4087 53.704 37.961 54.7922 37.488C54.2226 34.1753 53.6913 30.8566 53.1285 27.5426C53.6482 27.3905 54.1656 27.2297 54.6832 27.0692C54.4999 25.9694 54.3172 24.8693 54.1349 23.7692C51.9307 24.3159 49.7117 24.7975 47.4782 25.2102ZM58.4578 28.7252C58.2646 27.7755 57.8094 25.1212 58.7602 24.8031C59.6757 24.4967 60.1438 27.4498 60.279 28.1621C60.4337 28.9797 60.9709 31.6536 59.9967 32.052C59.9441 32.0734 59.8927 32.0834 59.8428 32.0834C58.9995 32.0836 58.5586 29.1661 58.4578 28.7252ZM59.3217 22.0923C58.8305 22.0923 58.2962 22.2211 57.7211 22.5086C54.8464 23.9445 55.0009 27.6595 55.4373 30.2869C55.8597 32.8443 57.2789 36.5428 60.4844 34.8386C63.3325 33.3247 63.5919 30.0836 63.1064 26.9373C62.7733 24.5239 61.4552 22.0926 59.3217 22.0923Z" fill="url(#paint1_radial)"/>
<path d="M10.8307 27.5233C5.07609 32.4768 2.19572 38.1376 3.70106 43.028C6.41817 51.8543 22.3906 54.8319 39.3689 49.6773C49.3163 46.6567 57.4054 41.5141 61.8527 35.998C61.936 35.8947 61.8742 35.7713 61.7332 35.8875C57.5955 39.3712 52.1248 42.4136 45.7882 44.4917C29.3742 49.875 13.3584 46.752 10.0238 37.5181C8.90901 34.4312 9.35297 31.0512 11.0508 27.7183C11.1249 27.5755 11.0903 27.4512 10.9888 27.4512C10.9469 27.4514 10.8933 27.4728 10.8307 27.5233ZM22.0876 5.2334C20.8877 7.11722 19.6336 9.0315 18.5778 11.0949C14.8574 10.7474 11.068 10.6456 7.21524 10.7711C7.11888 10.7744 7.10026 10.8647 7.18558 10.9038C10.4753 12.5992 13.012 14.1067 15.9231 16.1139C14.6679 18.7018 12.9817 22.0234 11.9944 25.5189C11.9684 25.6028 12.0279 25.6458 12.0995 25.5979C15.1209 23.5793 18.2797 21.8236 21.5451 20.2707C24.0764 22.3837 26.4472 24.694 28.5919 27.2035C28.66 27.2794 28.7107 27.2369 28.7142 27.1618C28.8768 23.9146 28.5608 20.7221 27.7854 17.5828C30.3853 16.5674 33.0367 15.6498 35.7248 14.8027C35.8119 14.7751 35.8037 14.6984 35.726 14.6692C32.5324 13.5974 29.2748 12.7553 25.957 12.1288C24.965 9.79317 23.7211 7.49642 22.2198 5.219C22.2014 5.19328 22.1811 5.1832 22.1615 5.1832C22.1314 5.1832 22.1038 5.20624 22.0876 5.2334Z" fill="url(#paint2_linear)"/>
</g>
<defs>
<linearGradient id="paint0_linear" x1="16.7807" y1="6.2747" x2="70.3184" y2="35.646" gradientUnits="userSpaceOnUse">
<stop stop-color="#FFDD00"/>
<stop offset="1" stop-color="#F6881F"/>
</linearGradient>
<radialGradient id="paint1_radial" cx="0" cy="0" r="1" gradientUnits="userSpaceOnUse" gradientTransform="translate(40.8683 23.0383) scale(28.0709 28.2302)">
<stop stop-color="#00ACEE"/>
<stop offset="1" stop-color="#273B97"/>
</radialGradient>
<linearGradient id="paint2_linear" x1="7.72274" y1="22.7847" x2="61.2604" y2="52.1561" gradientUnits="userSpaceOnUse">
<stop stop-color="#FFDD00"/>
<stop offset="1" stop-color="#F6881F"/>
</linearGradient>
<clipPath id="clip0">
<rect width="80.9722" height="55" fill="white" transform="translate(0.013916)"/>
</clipPath>
</defs>
</svg>
