<svg width="222" height="84" viewBox="0 0 222 84" fill="none" xmlns="http://www.w3.org/2000/svg">
<mask id="path-1-inside-1" fill="white">
<path fill-rule="evenodd" clip-rule="evenodd" d="M12.2793 0C5.65188 0 0.279297 5.37258 0.279297 12V72C0.279297 78.6274 5.65188 84 12.2793 84H195C201.627 84 207 78.6274 207 72V55.3445L221.5 60.5001L207 41.65V12C207 5.37258 201.627 0 195 0H12.2793Z"/>
</mask>
<path fill-rule="evenodd" clip-rule="evenodd" d="M12.2793 0C5.65188 0 0.279297 5.37258 0.279297 12V72C0.279297 78.6274 5.65188 84 12.2793 84H195C201.627 84 207 78.6274 207 72V55.3445L221.5 60.5001L207 41.65V12C207 5.37258 201.627 0 195 0H12.2793Z" fill="#FFEAEA"/>
<path d="M207 55.3445L207.335 54.4023L206 53.9276V55.3445H207ZM221.5 60.5001L221.165 61.4423L224.36 62.5784L222.293 59.8904L221.5 60.5001ZM207 41.65H206V41.9901L206.207 42.2597L207 41.65ZM1.2793 12C1.2793 5.92487 6.20416 1 12.2793 1V-1C5.0996 -1 -0.720703 4.8203 -0.720703 12H1.2793ZM1.2793 72V12H-0.720703V72H1.2793ZM12.2793 83C6.20416 83 1.2793 78.0751 1.2793 72H-0.720703C-0.720703 79.1797 5.09959 85 12.2793 85V83ZM195 83H12.2793V85H195V83ZM206 72C206 78.0751 201.075 83 195 83V85C202.18 85 208 79.1797 208 72H206ZM206 55.3445V72H208V55.3445H206ZM206.665 56.2867L221.165 61.4423L221.835 59.5579L207.335 54.4023L206.665 56.2867ZM222.293 59.8904L207.793 41.0403L206.207 42.2597L220.707 61.1098L222.293 59.8904ZM206 12V41.65H208V12H206ZM195 1C201.075 1 206 5.92487 206 12H208C208 4.8203 202.18 -1 195 -1V1ZM12.2793 1H195V-1H12.2793V1Z" fill="#253F9A" mask="url(#path-1-inside-1)"/>
</svg>
