<svg width="248" height="58" viewBox="0 0 248 58" fill="none" xmlns="http://www.w3.org/2000/svg">
<mask id="path-1-inside-1" fill="white">
<path fill-rule="evenodd" clip-rule="evenodd" d="M12 0C5.37258 0 0 5.37258 0 12V46C0 52.6274 5.37258 58 12 58H223C229.627 58 235 52.6274 235 46V32.3334L248 41.0001L235 13.6071V12C235 5.37258 229.627 0 223 0H12Z"/>
</mask>
<path fill-rule="evenodd" clip-rule="evenodd" d="M12 0C5.37258 0 0 5.37258 0 12V46C0 52.6274 5.37258 58 12 58H223C229.627 58 235 52.6274 235 46V32.3334L248 41.0001L235 13.6071V12C235 5.37258 229.627 0 223 0H12Z" fill="#EBEEFA"/>
<path d="M235 32.3334L235.555 31.5014L234 30.4649V32.3334H235ZM248 41.0001L247.445 41.8321L250.454 43.8376L248.903 40.5713L248 41.0001ZM235 13.6071H234V13.8324L234.097 14.0359L235 13.6071ZM1 12C1 5.92487 5.92487 1 12 1V-1C4.8203 -1 -1 4.8203 -1 12H1ZM1 46V12H-1V46H1ZM12 57C5.92487 57 1 52.0751 1 46H-1C-1 53.1797 4.8203 59 12 59V57ZM223 57H12V59H223V57ZM234 46C234 52.0751 229.075 57 223 57V59C230.18 59 236 53.1797 236 46H234ZM234 32.3334V46H236V32.3334H234ZM234.445 33.1655L247.445 41.8321L248.555 40.168L235.555 31.5014L234.445 33.1655ZM248.903 40.5713L235.903 13.1784L234.097 14.0359L247.097 41.4288L248.903 40.5713ZM234 12V13.6071H236V12H234ZM223 1C229.075 1 234 5.92487 234 12H236C236 4.8203 230.18 -1 223 -1V1ZM12 1H223V-1H12V1Z" fill="#253F9A" mask="url(#path-1-inside-1)"/>
</svg>
