<svg width="200" height="114" viewBox="0 0 200 114" fill="none" xmlns="http://www.w3.org/2000/svg">
<mask id="path-1-inside-1" fill="white">
<path fill-rule="evenodd" clip-rule="evenodd" d="M12 0C5.37258 0 0 5.37258 0 12V29C0 35.6274 5.37258 41 12 41L29 41L1.19209e-06 114L45 41L188 41C194.627 41 200 35.6274 200 29V12C200 5.37258 194.627 0 188 0H12Z"/>
</mask>
<path fill-rule="evenodd" clip-rule="evenodd" d="M12 0C5.37258 0 0 5.37258 0 12V29C0 35.6274 5.37258 41 12 41L29 41L1.19209e-06 114L45 41L188 41C194.627 41 200 35.6274 200 29V12C200 5.37258 194.627 0 188 0H12Z" fill="#FFFEE1"/>
<path d="M12 41V40V41ZM29 41L29.9294 41.3692L30.4733 40H29L29 41ZM1.19209e-06 114L-0.929351 113.631L0.851259 114.525L1.19209e-06 114ZM45 41V40H44.4417L44.1487 40.4753L45 41ZM188 41V40V41ZM1 12C1 5.92487 5.92487 1 12 1V-1C4.8203 -1 -1 4.8203 -1 12H1ZM1 29V12H-1V29H1ZM12 40C5.92487 40 1 35.0751 1 29H-1C-1 36.1797 4.8203 42 12 42V40ZM29 40L12 40V42L29 42L29 40ZM28.0706 40.6308L-0.929351 113.631L0.929353 114.369L29.9294 41.3692L28.0706 40.6308ZM0.851259 114.525L45.8513 41.5248L44.1487 40.4753L-0.851256 113.475L0.851259 114.525ZM188 40L45 40V42L188 42V40ZM199 29C199 35.0751 194.075 40 188 40V42C195.18 42 201 36.1797 201 29H199ZM199 12V29H201V12H199ZM188 1C194.075 1 199 5.92487 199 12H201C201 4.8203 195.18 -1 188 -1V1ZM12 1H188V-1H12V1Z" fill="#253F9A" mask="url(#path-1-inside-1)"/>
</svg>
